<svg width="145" height="65" viewBox="0 0 145 65" fill="none" xmlns="http://www.w3.org/2000/svg">
<rect width="145" height="65" fill="white"/>
<path d="M45.9116 16.5703H57.04V18.642H52.6583V30.3203H50.2566V18.642H45.8933L45.9116 16.5703ZM56.5633 20.3653H58.6166V22.2903H58.6533C58.7266 22.0153 58.855 21.7586 59.0383 21.502C59.2216 21.2453 59.4416 21.007 59.7166 20.8053C59.9733 20.5853 60.2666 20.4203 60.5966 20.292C60.9083 20.1636 61.2383 20.0903 61.5683 20.0903C61.825 20.0903 62.0083 20.1086 62.1 20.1086C62.1916 20.127 62.3016 20.1453 62.3933 20.1453V22.2536C62.2466 22.217 62.0816 22.1986 61.9166 22.1803C61.7516 22.162 61.605 22.1436 61.44 22.1436C61.0733 22.1436 60.725 22.217 60.395 22.3636C60.065 22.5103 59.79 22.7303 59.5333 23.0053C59.295 23.2986 59.0933 23.647 58.9466 24.0686C58.8 24.4903 58.7266 24.9853 58.7266 25.5353V30.2653H56.5266L56.5633 20.3653ZM72.4766 30.3203H70.3133V28.927H70.2766C70.0016 29.4403 69.5983 29.8253 69.0666 30.137C68.535 30.4486 67.985 30.5953 67.435 30.5953C66.1333 30.5953 65.18 30.2836 64.5933 29.6236C64.0066 28.982 63.7133 27.992 63.7133 26.6903V20.3653H65.9133V26.4703C65.9133 27.3503 66.0783 27.9736 66.4266 28.322C66.7566 28.6886 67.2333 28.872 67.8383 28.872C68.2966 28.872 68.6816 28.7986 68.9933 28.652C69.305 28.5053 69.5616 28.322 69.745 28.0836C69.9466 27.8453 70.075 27.552 70.1666 27.222C70.2583 26.892 70.295 26.5253 70.295 26.1403V20.3653H72.495V30.3203H72.4766ZM76.2166 27.1303C76.29 27.772 76.5283 28.212 76.95 28.487C77.3716 28.7436 77.885 28.872 78.4716 28.872C78.6733 28.872 78.9116 28.8536 79.1683 28.817C79.425 28.7803 79.6816 28.7253 79.9016 28.6336C80.14 28.542 80.3233 28.4136 80.47 28.2303C80.6166 28.047 80.69 27.827 80.6716 27.552C80.6533 27.277 80.5616 27.0386 80.36 26.8553C80.1583 26.672 79.92 26.5436 79.6266 26.4153C79.3333 26.3053 78.985 26.2136 78.6 26.1403C78.215 26.067 77.83 25.9753 77.4266 25.8836C77.0233 25.792 76.62 25.682 76.235 25.5536C75.85 25.4253 75.52 25.2603 75.2083 25.022C74.915 24.802 74.6583 24.527 74.4933 24.1786C74.31 23.8303 74.2183 23.427 74.2183 22.9136C74.2183 22.3636 74.3466 21.9236 74.6216 21.557C74.8783 21.1903 75.2266 20.897 75.63 20.677C76.0333 20.457 76.4916 20.292 76.9866 20.2003C77.4816 20.1086 77.9583 20.072 78.3983 20.072C78.9116 20.072 79.4066 20.127 79.865 20.237C80.3233 20.347 80.7633 20.512 81.13 20.7686C81.515 21.007 81.8266 21.337 82.065 21.722C82.3216 22.107 82.4683 22.5836 82.5416 23.1336H80.25C80.14 22.602 79.9016 22.2536 79.535 22.0703C79.15 21.887 78.7283 21.7953 78.2333 21.7953C78.0866 21.7953 77.885 21.8136 77.6833 21.832C77.4633 21.8686 77.28 21.9053 77.0783 21.9786C76.895 22.052 76.73 22.162 76.6016 22.2903C76.4733 22.4186 76.4 22.602 76.4 22.822C76.4 23.097 76.4916 23.2986 76.675 23.4636C76.8583 23.6286 77.0966 23.757 77.4083 23.8853C77.7016 23.9953 78.05 24.087 78.435 24.1603C78.82 24.2336 79.2233 24.3253 79.6266 24.417C80.03 24.5086 80.415 24.6186 80.8 24.747C81.185 24.8753 81.5333 25.0403 81.8266 25.2786C82.12 25.4986 82.3766 25.7736 82.56 26.1036C82.7433 26.4336 82.835 26.8553 82.835 27.332C82.835 27.9186 82.7066 28.4136 82.4316 28.8353C82.1566 29.2386 81.8083 29.587 81.3866 29.8436C80.965 30.1003 80.47 30.2836 79.9566 30.412C79.425 30.522 78.9116 30.5953 78.3983 30.5953C77.775 30.5953 77.1883 30.522 76.6566 30.3753C76.125 30.2286 75.6483 30.0086 75.2633 29.7336C74.8783 29.4403 74.5666 29.092 74.3466 28.652C74.1266 28.2303 73.9983 27.717 73.98 27.112H76.1983V27.1303H76.2166ZM83.4583 20.3653H85.1266V17.3586H87.3266V20.347H89.3066V21.9786H87.3266V27.2953C87.3266 27.5336 87.345 27.717 87.3633 27.9003C87.3816 28.0653 87.4366 28.212 87.4916 28.322C87.565 28.432 87.675 28.5236 87.8033 28.5786C87.95 28.6336 88.1333 28.6703 88.39 28.6703C88.5366 28.6703 88.7016 28.6703 88.8483 28.652C88.995 28.6336 89.16 28.6153 89.3066 28.5786V30.2836C89.0683 30.3203 88.83 30.3386 88.5916 30.357C88.3533 30.3936 88.1333 30.3936 87.8766 30.3936C87.29 30.3936 86.8316 30.3386 86.4833 30.2286C86.135 30.1186 85.86 29.9536 85.6583 29.752C85.4566 29.532 85.3283 29.2753 85.255 28.9636C85.1816 28.652 85.145 28.267 85.1266 27.8636V21.997H83.4583V20.3286V20.3653ZM90.8466 20.3653H92.9183V21.722H92.955C93.2666 21.1353 93.6883 20.732 94.2383 20.4753C94.7883 20.2186 95.375 20.0903 96.035 20.0903C96.8233 20.0903 97.5016 20.2186 98.0883 20.512C98.675 20.787 99.1516 21.1536 99.5366 21.6486C99.9216 22.1253 100.215 22.6936 100.398 23.3353C100.582 23.977 100.692 24.6736 100.692 25.3886C100.692 26.067 100.6 26.7086 100.435 27.332C100.252 27.9553 99.995 28.5236 99.6466 29.0003C99.2983 29.477 98.8583 29.862 98.3083 30.1553C97.7583 30.4486 97.135 30.5953 96.4016 30.5953C96.09 30.5953 95.76 30.5586 95.4483 30.5036C95.1366 30.4486 94.825 30.357 94.5316 30.2286C94.2383 30.1003 93.9633 29.9353 93.725 29.7336C93.4683 29.532 93.2666 29.2936 93.1016 29.037H93.065V34.0053H90.865V20.3653H90.8466ZM98.5283 25.352C98.5283 24.912 98.4733 24.472 98.345 24.0503C98.235 23.6286 98.0516 23.262 97.8133 22.932C97.575 22.602 97.2816 22.3453 96.9516 22.1436C96.6033 21.942 96.2 21.8503 95.76 21.8503C94.8433 21.8503 94.1466 22.162 93.67 22.8036C93.2116 23.4453 92.9733 24.307 92.9733 25.3703C92.9733 25.8836 93.0283 26.342 93.1566 26.7636C93.285 27.1853 93.45 27.552 93.7066 27.8636C93.945 28.1753 94.2383 28.4136 94.5866 28.597C94.935 28.7803 95.32 28.872 95.7783 28.872C96.2916 28.872 96.695 28.762 97.0433 28.5603C97.3916 28.3586 97.6666 28.0836 97.905 27.772C98.125 27.442 98.29 27.0753 98.3816 26.6536C98.4733 26.2136 98.5283 25.792 98.5283 25.352ZM102.397 16.5703H104.597V18.642H102.397V16.5703ZM102.397 20.3653H104.597V30.3203H102.397V20.3653ZM106.558 16.5703H108.758V30.3203H106.558V16.5703ZM115.468 30.5953C114.68 30.5953 113.965 30.467 113.342 30.192C112.718 29.917 112.205 29.5686 111.765 29.1103C111.343 28.652 111.013 28.0836 110.793 27.442C110.573 26.8003 110.445 26.0853 110.445 25.3336C110.445 24.582 110.555 23.8853 110.793 23.2436C111.013 22.602 111.343 22.052 111.765 21.5753C112.187 21.117 112.718 20.7503 113.342 20.4936C113.965 20.237 114.68 20.0903 115.468 20.0903C116.257 20.0903 116.972 20.2186 117.595 20.4936C118.218 20.7503 118.732 21.117 119.172 21.5753C119.593 22.0336 119.923 22.602 120.143 23.2436C120.363 23.8853 120.492 24.582 120.492 25.3336C120.492 26.1036 120.382 26.8003 120.143 27.442C119.905 28.0836 119.593 28.6336 119.172 29.1103C118.75 29.5686 118.218 29.9353 117.595 30.192C116.972 30.4486 116.275 30.5953 115.468 30.5953ZM115.468 28.8536C115.945 28.8536 116.385 28.7436 116.733 28.542C117.1 28.3403 117.375 28.0653 117.613 27.7353C117.852 27.4053 118.017 27.0203 118.127 26.617C118.237 26.1953 118.292 25.7736 118.292 25.3336C118.292 24.912 118.237 24.4903 118.127 24.0686C118.017 23.647 117.852 23.2803 117.613 22.9503C117.375 22.6203 117.082 22.3636 116.733 22.162C116.367 21.9603 115.945 21.8503 115.468 21.8503C114.992 21.8503 114.552 21.9603 114.203 22.162C113.837 22.3636 113.562 22.6386 113.323 22.9503C113.085 23.2803 112.92 23.647 112.81 24.0686C112.7 24.4903 112.645 24.912 112.645 25.3336C112.645 25.7736 112.7 26.1953 112.81 26.617C112.92 27.0386 113.085 27.4053 113.323 27.7353C113.562 28.0653 113.855 28.3403 114.203 28.542C114.57 28.762 114.992 28.8536 115.468 28.8536ZM121.152 20.3653H122.82V17.3586H125.02V20.347H127V21.9786H125.02V27.2953C125.02 27.5336 125.038 27.717 125.057 27.9003C125.075 28.0653 125.13 28.212 125.185 28.322C125.258 28.432 125.368 28.5236 125.497 28.5786C125.643 28.6336 125.827 28.6703 126.083 28.6703C126.23 28.6703 126.395 28.6703 126.542 28.652C126.688 28.6336 126.853 28.6153 127 28.5786V30.2836C126.762 30.3203 126.523 30.3386 126.285 30.357C126.047 30.3936 125.827 30.3936 125.57 30.3936C124.983 30.3936 124.525 30.3386 124.177 30.2286C123.828 30.1186 123.553 29.9536 123.352 29.752C123.15 29.532 123.022 29.2753 122.948 28.9636C122.875 28.652 122.838 28.267 122.82 27.8636V21.997H121.152V20.3286V20.3653Z" fill="black"/>
<path d="M43.345 16.57H33.28L30.1817 7L27.065 16.57L17 16.5517L25.14 22.4733L22.0233 32.0433L30.1633 26.1217L38.3033 32.0433L35.205 22.4733L43.345 16.57Z" fill="#00B67A"/>
<path d="M35.9016 24.637L35.205 22.4736L30.1816 26.122L35.9016 24.637Z" fill="#005128"/>
<path d="M52 38L53.1226 41.4549H56.7553L53.8164 43.5902L54.9389 47.0451L52 44.9098L49.0611 47.0451L50.1836 43.5902L47.2447 41.4549H50.8774L52 38Z" fill="#FFE55C"/>
<path d="M92 38L93.1226 41.4549H96.7553L93.8164 43.5902L94.9389 47.0451L92 44.9098L89.0611 47.0451L90.1836 43.5902L87.2447 41.4549H90.8774L92 38Z" fill="#FFE55C"/>
<path d="M62 38L63.1226 41.4549H66.7553L63.8164 43.5902L64.9389 47.0451L62 44.9098L59.0611 47.0451L60.1836 43.5902L57.2447 41.4549H60.8774L62 38Z" fill="#FFE55C"/>
<path d="M72 38L73.1226 41.4549H76.7553L73.8164 43.5902L74.9389 47.0451L72 44.9098L69.0611 47.0451L70.1836 43.5902L67.2447 41.4549H70.8774L72 38Z" fill="#FFE55C"/>
<path d="M82 38L83.1226 41.4549H86.7553L83.8164 43.5902L84.9389 47.0451L82 44.9098L79.0611 47.0451L80.1836 43.5902L77.2447 41.4549H80.8774L82 38Z" fill="#FFE55C"/>
<path d="M36.944 50.4H41.04V50.904H37.528V52.736H39.36C40.0213 52.736 40.5227 52.872 40.864 53.144C41.2107 53.416 41.384 53.8107 41.384 54.328C41.384 54.8667 41.1973 55.28 40.824 55.568C40.456 55.856 39.9253 56 39.232 56H36.944V50.4ZM39.224 55.528C39.7413 55.528 40.1307 55.4293 40.392 55.232C40.6587 55.0347 40.792 54.7413 40.792 54.352C40.792 53.968 40.6613 53.6827 40.4 53.496C40.144 53.304 39.752 53.208 39.224 53.208H37.528V55.528H39.224ZM44.3565 56.04C43.9512 56.04 43.5858 55.9493 43.2605 55.768C42.9352 55.5813 42.6792 55.3253 42.4925 55C42.3058 54.6747 42.2125 54.3067 42.2125 53.896C42.2125 53.4853 42.3058 53.1173 42.4925 52.792C42.6792 52.4667 42.9352 52.2133 43.2605 52.032C43.5858 51.8507 43.9512 51.76 44.3565 51.76C44.7618 51.76 45.1272 51.8507 45.4525 52.032C45.7778 52.2133 46.0312 52.4667 46.2125 52.792C46.3992 53.1173 46.4925 53.4853 46.4925 53.896C46.4925 54.3067 46.3992 54.6747 46.2125 55C46.0312 55.3253 45.7778 55.5813 45.4525 55.768C45.1272 55.9493 44.7618 56.04 44.3565 56.04ZM44.3565 55.536C44.6552 55.536 44.9218 55.4693 45.1565 55.336C45.3965 55.1973 45.5832 55.0027 45.7165 54.752C45.8498 54.5013 45.9165 54.216 45.9165 53.896C45.9165 53.576 45.8498 53.2907 45.7165 53.04C45.5832 52.7893 45.3965 52.5973 45.1565 52.464C44.9218 52.3253 44.6552 52.256 44.3565 52.256C44.0578 52.256 43.7885 52.3253 43.5485 52.464C43.3138 52.5973 43.1272 52.7893 42.9885 53.04C42.8552 53.2907 42.7885 53.576 42.7885 53.896C42.7885 54.216 42.8552 54.5013 42.9885 54.752C43.1272 55.0027 43.3138 55.1973 43.5485 55.336C43.7885 55.4693 44.0578 55.536 44.3565 55.536ZM51.123 51.792V56H50.555V52.296H48.539L48.483 53.336C48.4403 54.2107 48.339 54.8827 48.179 55.352C48.019 55.8213 47.7337 56.056 47.323 56.056C47.211 56.056 47.075 56.0347 46.915 55.992L46.955 55.504C47.051 55.5253 47.1177 55.536 47.155 55.536C47.3737 55.536 47.539 55.4347 47.651 55.232C47.763 55.0293 47.8377 54.7787 47.875 54.48C47.9123 54.1813 47.9443 53.7867 47.971 53.296L48.043 51.792H51.123ZM56.4177 54.072H52.8977C52.9297 54.5093 53.0977 54.864 53.4017 55.136C53.7057 55.4027 54.0897 55.536 54.5537 55.536C54.815 55.536 55.055 55.4907 55.2737 55.4C55.4924 55.304 55.6817 55.1653 55.8417 54.984L56.1617 55.352C55.975 55.576 55.7404 55.7467 55.4577 55.864C55.1804 55.9813 54.8737 56.04 54.5377 56.04C54.1057 56.04 53.7217 55.9493 53.3857 55.768C53.055 55.5813 52.7964 55.3253 52.6097 55C52.423 54.6747 52.3297 54.3067 52.3297 53.896C52.3297 53.4853 52.4177 53.1173 52.5937 52.792C52.775 52.4667 53.0204 52.2133 53.3297 52.032C53.6444 51.8507 53.9964 51.76 54.3857 51.76C54.775 51.76 55.1244 51.8507 55.4337 52.032C55.743 52.2133 55.9857 52.4667 56.1617 52.792C56.3377 53.112 56.4257 53.48 56.4257 53.896L56.4177 54.072ZM54.3857 52.248C53.9804 52.248 53.639 52.3787 53.3617 52.64C53.0897 52.896 52.935 53.232 52.8977 53.648H55.8817C55.8444 53.232 55.687 52.896 55.4097 52.64C55.1377 52.3787 54.7964 52.248 54.3857 52.248ZM61.363 54.072H57.843C57.875 54.5093 58.043 54.864 58.347 55.136C58.651 55.4027 59.035 55.536 59.499 55.536C59.7603 55.536 60.0003 55.4907 60.219 55.4C60.4377 55.304 60.627 55.1653 60.787 54.984L61.107 55.352C60.9203 55.576 60.6857 55.7467 60.403 55.864C60.1257 55.9813 59.819 56.04 59.483 56.04C59.051 56.04 58.667 55.9493 58.331 55.768C58.0003 55.5813 57.7417 55.3253 57.555 55C57.3683 54.6747 57.275 54.3067 57.275 53.896C57.275 53.4853 57.363 53.1173 57.539 52.792C57.7203 52.4667 57.9657 52.2133 58.275 52.032C58.5897 51.8507 58.9417 51.76 59.331 51.76C59.7203 51.76 60.0697 51.8507 60.379 52.032C60.6883 52.2133 60.931 52.4667 61.107 52.792C61.283 53.112 61.371 53.48 61.371 53.896L61.363 54.072ZM59.331 52.248C58.9257 52.248 58.5843 52.3787 58.307 52.64C58.035 52.896 57.8803 53.232 57.843 53.648H60.827C60.7897 53.232 60.6323 52.896 60.355 52.64C60.083 52.3787 59.7417 52.248 59.331 52.248ZM68.1541 55.488V56H64.2261V55.592L66.5541 53.312C66.8474 53.024 67.0447 52.776 67.1461 52.568C67.2527 52.3547 67.3061 52.1413 67.3061 51.928C67.3061 51.5973 67.1914 51.3413 66.9621 51.16C66.7381 50.9733 66.4154 50.88 65.9941 50.88C65.3381 50.88 64.8287 51.088 64.4661 51.504L64.0581 51.152C64.2767 50.896 64.5541 50.6987 64.8901 50.56C65.2314 50.4213 65.6154 50.352 66.0421 50.352C66.6127 50.352 67.0634 50.488 67.3941 50.76C67.7301 51.0267 67.8981 51.3947 67.8981 51.864C67.8981 52.152 67.8341 52.4293 67.7061 52.696C67.5781 52.9627 67.3354 53.2693 66.9781 53.616L65.0741 55.488H68.1541ZM71.0777 56.048C70.6457 56.048 70.259 55.9333 69.9177 55.704C69.5817 55.4747 69.3177 55.1467 69.1257 54.72C68.939 54.288 68.8457 53.7813 68.8457 53.2C68.8457 52.6187 68.939 52.1147 69.1257 51.688C69.3177 51.256 69.5817 50.9253 69.9177 50.696C70.259 50.4667 70.6457 50.352 71.0777 50.352C71.5097 50.352 71.8937 50.4667 72.2297 50.696C72.571 50.9253 72.8377 51.256 73.0297 51.688C73.2217 52.1147 73.3177 52.6187 73.3177 53.2C73.3177 53.7813 73.2217 54.288 73.0297 54.72C72.8377 55.1467 72.571 55.4747 72.2297 55.704C71.8937 55.9333 71.5097 56.048 71.0777 56.048ZM71.0777 55.52C71.403 55.52 71.6884 55.4293 71.9337 55.248C72.1844 55.0667 72.379 54.8027 72.5177 54.456C72.6564 54.1093 72.7257 53.6907 72.7257 53.2C72.7257 52.7093 72.6564 52.2907 72.5177 51.944C72.379 51.5973 72.1844 51.3333 71.9337 51.152C71.6884 50.9707 71.403 50.88 71.0777 50.88C70.7524 50.88 70.4644 50.9707 70.2137 51.152C69.9684 51.3333 69.7764 51.5973 69.6377 51.944C69.499 52.2907 69.4297 52.7093 69.4297 53.2C69.4297 53.6907 69.499 54.1093 69.6377 54.456C69.7764 54.8027 69.9684 55.0667 70.2137 55.248C70.4644 55.4293 70.7524 55.52 71.0777 55.52ZM78.3643 56.04C77.959 56.04 77.5936 55.9493 77.2683 55.768C76.943 55.5813 76.687 55.3253 76.5003 55C76.3136 54.6747 76.2203 54.3067 76.2203 53.896C76.2203 53.4853 76.3136 53.1173 76.5003 52.792C76.687 52.4667 76.943 52.2133 77.2683 52.032C77.5936 51.8507 77.959 51.76 78.3643 51.76C78.7696 51.76 79.135 51.8507 79.4603 52.032C79.7856 52.2133 80.039 52.4667 80.2203 52.792C80.407 53.1173 80.5003 53.4853 80.5003 53.896C80.5003 54.3067 80.407 54.6747 80.2203 55C80.039 55.3253 79.7856 55.5813 79.4603 55.768C79.135 55.9493 78.7696 56.04 78.3643 56.04ZM78.3643 55.536C78.663 55.536 78.9296 55.4693 79.1643 55.336C79.4043 55.1973 79.591 55.0027 79.7243 54.752C79.8576 54.5013 79.9243 54.216 79.9243 53.896C79.9243 53.576 79.8576 53.2907 79.7243 53.04C79.591 52.7893 79.4043 52.5973 79.1643 52.464C78.9296 52.3253 78.663 52.256 78.3643 52.256C78.0656 52.256 77.7963 52.3253 77.5563 52.464C77.3216 52.5973 77.135 52.7893 76.9963 53.04C76.863 53.2907 76.7963 53.576 76.7963 53.896C76.7963 54.216 76.863 54.5013 76.9963 54.752C77.135 55.0027 77.3216 55.1973 77.5563 55.336C77.7963 55.4693 78.0656 55.536 78.3643 55.536ZM84.518 52.296H82.926V56H82.358V52.296H80.766V51.792H84.518V52.296ZM87.2701 53.808C87.5687 53.8773 87.7981 53.9973 87.9581 54.168C88.1234 54.3387 88.2061 54.5467 88.2061 54.792C88.2061 55.0373 88.1207 55.256 87.9501 55.448C87.7847 55.64 87.5581 55.7893 87.2701 55.896C86.9821 55.9973 86.6647 56.048 86.3181 56.048C86.0141 56.048 85.7154 56.0053 85.4221 55.92C85.1287 55.8293 84.8727 55.6987 84.6541 55.528L84.8461 55.104C85.0381 55.248 85.2621 55.36 85.5181 55.44C85.7741 55.52 86.0327 55.56 86.2941 55.56C86.6834 55.56 87.0007 55.488 87.2461 55.344C87.4967 55.1947 87.6221 54.9947 87.6221 54.744C87.6221 54.52 87.5207 54.3467 87.3181 54.224C87.1154 54.096 86.8381 54.032 86.4861 54.032H85.7661V53.616H86.4541C86.7687 53.616 87.0221 53.5573 87.2141 53.44C87.4061 53.3173 87.5021 53.1547 87.5021 52.952C87.5021 52.728 87.3927 52.552 87.1741 52.424C86.9607 52.296 86.6807 52.232 86.3341 52.232C85.8807 52.232 85.4327 52.3467 84.9901 52.576L84.8301 52.136C85.3314 51.8747 85.8514 51.744 86.3901 51.744C86.7101 51.744 86.9981 51.792 87.2541 51.888C87.5154 51.9787 87.7181 52.1093 87.8621 52.28C88.0114 52.4507 88.0861 52.648 88.0861 52.872C88.0861 53.0853 88.0114 53.2747 87.8621 53.44C87.7181 53.6053 87.5207 53.728 87.2701 53.808ZM91.2635 53.28C91.7915 53.2853 92.1942 53.4027 92.4715 53.632C92.7488 53.8613 92.8875 54.192 92.8875 54.624C92.8875 55.072 92.7382 55.416 92.4395 55.656C92.1408 55.896 91.7142 56.0133 91.1595 56.008L89.4955 56V51.792H90.0635V53.264L91.2635 53.28ZM93.5915 51.792H94.1595V56H93.5915V51.792ZM91.1275 55.576C91.5168 55.5813 91.8102 55.504 92.0075 55.344C92.2102 55.1787 92.3115 54.9387 92.3115 54.624C92.3115 54.3147 92.2128 54.0853 92.0155 53.936C91.8182 53.7867 91.5222 53.7093 91.1275 53.704L90.0635 53.688V55.56L91.1275 55.576ZM98.4568 53.824C99.0274 53.9573 99.3128 54.3013 99.3128 54.856C99.3128 55.224 99.1768 55.5067 98.9048 55.704C98.6328 55.9013 98.2274 56 97.6888 56H95.7768V51.792H97.6328C98.1128 51.792 98.4888 51.8853 98.7608 52.072C99.0328 52.2587 99.1688 52.5253 99.1688 52.872C99.1688 53.1013 99.1048 53.2987 98.9768 53.464C98.8541 53.624 98.6808 53.744 98.4568 53.824ZM96.3288 53.664H97.5928C97.9181 53.664 98.1661 53.6027 98.3368 53.48C98.5128 53.3573 98.6008 53.1787 98.6008 52.944C98.6008 52.7093 98.5128 52.5333 98.3368 52.416C98.1661 52.2987 97.9181 52.24 97.5928 52.24H96.3288V53.664ZM97.6648 55.552C98.0274 55.552 98.2994 55.4933 98.4808 55.376C98.6621 55.2587 98.7528 55.0747 98.7528 54.824C98.7528 54.5733 98.6701 54.3893 98.5048 54.272C98.3394 54.1493 98.0781 54.088 97.7208 54.088H96.3288V55.552H97.6648ZM102.38 56.04C101.975 56.04 101.609 55.9493 101.284 55.768C100.959 55.5813 100.703 55.3253 100.516 55C100.329 54.6747 100.236 54.3067 100.236 53.896C100.236 53.4853 100.329 53.1173 100.516 52.792C100.703 52.4667 100.959 52.2133 101.284 52.032C101.609 51.8507 101.975 51.76 102.38 51.76C102.785 51.76 103.151 51.8507 103.476 52.032C103.801 52.2133 104.055 52.4667 104.236 52.792C104.423 53.1173 104.516 53.4853 104.516 53.896C104.516 54.3067 104.423 54.6747 104.236 55C104.055 55.3253 103.801 55.5813 103.476 55.768C103.151 55.9493 102.785 56.04 102.38 56.04ZM102.38 55.536C102.679 55.536 102.945 55.4693 103.18 55.336C103.42 55.1973 103.607 55.0027 103.74 54.752C103.873 54.5013 103.94 54.216 103.94 53.896C103.94 53.576 103.873 53.2907 103.74 53.04C103.607 52.7893 103.42 52.5973 103.18 52.464C102.945 52.3253 102.679 52.256 102.38 52.256C102.081 52.256 101.812 52.3253 101.572 52.464C101.337 52.5973 101.151 52.7893 101.012 53.04C100.879 53.2907 100.812 53.576 100.812 53.896C100.812 54.216 100.879 54.5013 101.012 54.752C101.151 55.0027 101.337 55.1973 101.572 55.336C101.812 55.4693 102.081 55.536 102.38 55.536ZM108.41 53.824C108.981 53.9573 109.266 54.3013 109.266 54.856C109.266 55.224 109.13 55.5067 108.858 55.704C108.586 55.9013 108.181 56 107.642 56H105.73V51.792H107.586C108.066 51.792 108.442 51.8853 108.714 52.072C108.986 52.2587 109.122 52.5253 109.122 52.872C109.122 53.1013 109.058 53.2987 108.93 53.464C108.807 53.624 108.634 53.744 108.41 53.824ZM106.282 53.664H107.546C107.871 53.664 108.119 53.6027 108.29 53.48C108.466 53.3573 108.554 53.1787 108.554 52.944C108.554 52.7093 108.466 52.5333 108.29 52.416C108.119 52.2987 107.871 52.24 107.546 52.24H106.282V53.664ZM107.618 55.552C107.981 55.552 108.253 55.4933 108.434 55.376C108.615 55.2587 108.706 55.0747 108.706 54.824C108.706 54.5733 108.623 54.3893 108.458 54.272C108.293 54.1493 108.031 54.088 107.674 54.088H106.282V55.552H107.618Z" fill="#919191"/>
</svg>
