<svg width="100" height="34" viewBox="0 0 100 34" fill="none" xmlns="http://www.w3.org/2000/svg">
<path fill-rule="evenodd" clip-rule="evenodd" d="M0 0H38.1658V33.9478H0V0Z" fill="white"/>
<path fill-rule="evenodd" clip-rule="evenodd" d="M3.66431 10.4401H10.5781C10.8444 10.4401 11.0618 10.658 11.0618 10.9243V13.1372C11.0618 13.4034 10.8444 13.6208 10.5781 13.6208H9.14713V19.6362H10.5787C10.8444 19.6362 11.0624 19.8541 11.0629 20.121V22.3338C11.0623 22.462 11.0111 22.5847 10.9204 22.6753C10.8297 22.7659 10.7069 22.817 10.5787 22.8174H3.66431C3.53613 22.8171 3.41329 22.7661 3.32265 22.6754C3.23202 22.5848 3.18096 22.462 3.18066 22.3338V20.121C3.18066 19.8541 3.39802 19.6362 3.66431 19.6362H5.1858V13.6202H3.66488C3.53665 13.6199 3.41375 13.5689 3.32302 13.4783C3.23229 13.3877 3.18111 13.2648 3.18066 13.1366V10.9238C3.18066 10.6575 3.39802 10.4401 3.66431 10.4401ZM29.4192 23.024C25.8966 23.024 23.0232 20.9045 23.0232 16.7673C23.0232 12.6302 25.8966 10.5101 29.4192 10.5101C32.9413 10.5101 35.8147 12.6302 35.8147 16.7673C35.8147 20.9045 32.9419 23.024 29.4192 23.024ZM31.2514 16.7673C31.2514 14.5039 30.8428 13.3448 29.4192 13.3448C27.995 13.3448 27.5865 14.5044 27.5865 16.7673C27.5865 19.0302 27.995 20.1904 29.4192 20.1904C30.8428 20.1898 31.2514 19.0296 31.2514 16.7673ZM17.6809 15.1423C16.5093 14.8128 15.3184 14.7366 15.3696 13.8142C15.3884 13.4785 15.6496 13.1024 16.5452 13.1002C17.1045 13.099 18.0422 13.2834 18.7688 13.7426C19.5182 14.216 20.0581 14.9244 20.6038 14.9244H21.9415C22.337 14.9244 22.6328 14.3525 22.6328 13.9565V11.3966C22.6328 10.9414 22.3262 10.7946 21.9933 10.7986L20.684 10.8145C19.8209 10.8253 20.2112 11.5076 19.8328 11.6487C18.8496 12.0168 18.8542 10.5937 16.2328 10.559C13.2752 10.5203 11.5289 12.2438 11.5727 14.216C11.6274 16.699 13.5033 17.6077 15.83 18.3668C16.9867 18.7446 18.8877 18.9369 18.8359 19.8592C18.8172 20.1949 18.556 20.5716 17.6604 20.5739C17.1011 20.5739 16.1634 20.3907 15.4368 19.9315C14.6874 19.4581 14.1469 18.7491 13.6018 18.7491H12.2641C11.8681 18.7491 11.5727 19.3215 11.5727 19.717V22.2775C11.5727 22.7332 11.8794 22.88 12.2123 22.8755L13.5215 22.8601C14.3847 22.8487 13.995 22.1665 14.3733 22.0254C15.3566 21.6578 15.3514 23.0803 17.9728 23.1144C20.931 23.1531 22.6767 21.4297 22.6334 19.457C22.5782 16.9739 20.7153 15.9963 17.6809 15.1423ZM27.4949 6.35304C27.1359 6.76898 26.6169 7.1502 25.9717 7.48249C26.4315 8.13142 26.8316 8.82063 27.1671 9.54168H26.5515C26.2399 8.9062 25.8754 8.29808 25.4619 7.72375C25.129 7.8677 24.7694 8.00085 24.3876 8.12034C23.9609 8.25405 23.5051 8.3724 23.0249 8.47197C23.1279 8.7633 23.2257 9.066 23.3173 9.37952L23.364 9.54168H22.787L22.7848 9.53372C22.691 9.21161 22.5874 8.89244 22.4741 8.57667C21.4681 8.74742 20.4503 8.83893 19.43 8.85035V9.54168H18.8735V8.85035C17.8534 8.83921 16.8357 8.7477 15.83 8.57667C15.7158 8.89527 15.6115 9.21728 15.517 9.54225H14.94C14.9548 9.48763 14.9708 9.43414 14.9867 9.38009C15.0783 9.06657 15.1762 8.7633 15.2797 8.47197C14.7747 8.3682 14.2757 8.23675 13.785 8.07823C13.4656 7.97524 13.1513 7.85695 12.8433 7.72375C12.4514 8.26786 12.1034 8.84227 11.8026 9.44154L11.7525 9.54168H11.1369C11.4729 8.82077 11.8732 8.13159 12.3329 7.48249C11.6883 7.1502 11.1693 6.76955 10.8103 6.35304C9.69599 7.25663 8.73392 8.3332 7.96078 9.54168H7.30587C9.73091 5.52687 14.1366 2.83325 19.1523 2.83325C24.168 2.83325 28.5737 5.52687 30.9987 9.54168H30.3444C29.5708 8.33359 28.6088 7.2571 27.4949 6.35304ZM15.5739 3.88248C15.8146 4.12145 16.1651 4.33539 16.5958 4.50951C17.2906 4.79059 18.1805 4.95958 19.1523 4.95958C20.0525 4.95958 20.8826 4.81506 21.5512 4.57039C22.053 4.38717 22.4599 4.15104 22.7307 3.88248C21.5916 3.56213 20.391 3.39029 19.1517 3.39029C17.9125 3.39029 16.7125 3.56213 15.5739 3.88248ZM15.4869 4.53283C15.3012 4.39876 15.1349 4.23985 14.9924 4.06057C13.648 4.50681 12.3838 5.16551 11.2479 6.01165C11.5739 6.38434 12.0581 6.72915 12.6681 7.03242C13.488 5.98604 14.4405 5.13426 15.4869 4.53283ZM17.0652 5.2509C16.8357 5.189 16.6099 5.11357 16.3893 5.02501C16.2695 4.97663 16.1516 4.92368 16.0359 4.86626C14.981 5.41705 14.0177 6.23811 13.1904 7.26912C13.4316 7.36926 13.6877 7.46315 13.9574 7.55078C14.4268 7.70383 14.9366 7.83698 15.4777 7.94623C15.9273 6.81507 16.4655 5.89444 17.0652 5.2509ZM18.8735 5.5115C18.4831 5.49982 18.0941 5.46027 17.7093 5.39315C17.0795 5.96215 16.5088 6.87595 16.0325 8.04751C16.9162 8.19431 17.8732 8.28079 18.8735 8.29445V5.5115ZM20.5947 5.39315C20.2097 5.46002 19.8205 5.49957 19.43 5.5115V8.29445C20.382 8.28369 21.3319 8.20114 22.2715 8.04751C21.7953 6.87652 21.2246 5.96215 20.5947 5.39315ZM22.2681 4.86569C22.1037 4.9482 21.9267 5.02331 21.7401 5.09159C21.5808 5.14962 21.4135 5.20311 21.2394 5.2509C21.8391 5.89444 22.3774 6.81507 22.8269 7.94509C23.2979 7.85093 23.7638 7.73242 24.2226 7.59004C24.5246 7.49623 24.8223 7.38896 25.1148 7.26855C24.2869 6.23754 23.3236 5.41648 22.2681 4.86569ZM23.3122 4.06114C23.1697 4.24056 23.0031 4.39948 22.8172 4.5334C23.8636 5.1354 24.8166 5.98661 25.6354 7.03299C26.2454 6.73028 26.7296 6.38548 27.0562 6.01278C25.9206 5.16626 24.6565 4.50735 23.3122 4.06114ZM27.4949 26.7645C27.1359 26.348 26.6169 25.9668 25.9717 25.6345C26.4315 24.986 26.8316 24.2972 27.1671 23.5765H26.5515C26.2399 24.2121 25.8754 24.8204 25.4619 25.395C25.1109 25.2441 24.7524 25.1118 24.3876 24.9984C23.9393 24.8591 23.4845 24.7416 23.0249 24.6462C23.1279 24.3549 23.2257 24.0527 23.3173 23.7392L23.364 23.577H22.787L22.7848 23.585C22.6909 23.9071 22.5873 24.2262 22.4741 24.542C21.4682 24.3709 20.4503 24.2796 19.43 24.2689V23.5776H18.8735V24.2689C17.8534 24.2796 16.8357 24.3709 15.83 24.542C15.7156 24.2237 15.6112 23.9019 15.517 23.577H14.94C14.9548 23.6317 14.9708 23.6846 14.9867 23.7392C15.0783 24.0527 15.1762 24.356 15.2797 24.6473C14.7494 24.7571 14.2487 24.8897 13.785 25.0405C13.4521 25.148 13.1375 25.2669 12.8433 25.395C12.4516 24.8506 12.1036 24.276 11.8026 23.6766L11.7525 23.5765H11.1369C11.4729 24.297 11.8732 24.9858 12.3329 25.6345C11.6883 25.9668 11.1693 26.348 10.8103 26.7645C9.69572 25.8612 8.73361 24.7846 7.96078 23.5759H7.30587C9.73091 27.5901 14.1366 30.2838 19.1523 30.2838C24.168 30.2838 28.5737 27.5901 30.9987 23.5759H30.3444C29.5711 24.7842 28.609 25.8608 27.4949 26.7645ZM15.5739 29.2351C15.8146 28.9961 16.1651 28.7828 16.5958 28.6081C17.2906 28.327 18.1805 28.1591 19.1523 28.1591C20.0525 28.1591 20.8826 28.3037 21.5512 28.5472C22.053 28.7304 22.4599 28.9671 22.7307 29.2351C21.5916 29.556 20.391 29.7273 19.1517 29.7273C17.9125 29.7273 16.7125 29.5549 15.5739 29.2351ZM15.4869 28.5847C15.3011 28.7187 15.1347 28.8776 14.9924 29.057C13.6479 28.6108 12.3837 27.9519 11.2479 27.1054C11.5739 26.7332 12.0581 26.3884 12.6681 26.0852C13.488 27.1321 14.4405 27.9839 15.4869 28.5847ZM17.0652 27.8667C16.8357 27.9284 16.61 28.0036 16.3893 28.092C16.2697 28.1409 16.1519 28.1938 16.0359 28.2507C14.981 27.7005 14.0177 26.8795 13.1904 25.8479C13.4316 25.7477 13.6877 25.6544 13.9574 25.5668C14.4268 25.4132 14.9366 25.28 15.4777 25.1714C15.9273 26.3031 16.4655 27.2237 17.0652 27.8667ZM18.8735 27.6055C18.4689 27.6186 18.078 27.6601 17.7093 27.7244C17.0795 27.1554 16.5088 26.2422 16.0325 25.0695C16.9721 24.9173 17.9217 24.8347 18.8735 24.8226V27.6055ZM20.5947 27.7244C20.2097 27.6576 19.8205 27.6179 19.43 27.6055V24.8226C20.4308 24.8368 21.3873 24.9227 22.2715 25.0695C21.7953 26.2411 21.2246 27.1554 20.5947 27.7244ZM22.2681 28.2513C22.0964 28.1665 21.9201 28.0913 21.7401 28.026C21.5808 27.968 21.4135 27.915 21.2394 27.8672C21.8391 27.2237 22.3774 26.3037 22.8269 25.1725C23.3207 25.2726 23.7873 25.3916 24.2226 25.5281C24.5384 25.6271 24.8365 25.7347 25.1148 25.849C24.2869 26.88 23.3236 27.7011 22.2681 28.2513ZM23.3122 29.057C23.17 28.8773 23.0034 28.7184 22.8172 28.5847C23.8636 27.9833 24.8166 27.131 25.6354 26.0852C26.2454 26.3884 26.7296 26.7332 27.0562 27.1054C25.9203 27.9515 24.6563 28.6103 23.3122 29.057Z" fill="#333333"/>
<path fill-rule="evenodd" clip-rule="evenodd" d="M47.3749 10.1829H46.6165V4.94473H47.3749V10.1829ZM48.9653 10.1829H48.2529V6.22553H48.9368V6.67617C49.0853 6.49808 49.2486 6.36778 49.4279 6.28528C49.6206 6.19969 49.8298 6.15735 50.0407 6.16123C50.559 6.16123 50.9568 6.31373 51.2339 6.61814C51.511 6.92255 51.6492 7.35953 51.6492 7.92796V10.1823H50.934V8.08272C50.934 7.66281 50.856 7.351 50.7007 7.14844C50.5442 6.94588 50.3024 6.84459 49.9758 6.84459C49.6208 6.84459 49.3641 6.96409 49.2048 7.20249C49.0449 7.44147 48.9658 7.83464 48.9658 8.38486V10.1829H48.9653ZM52.7229 10.1829V6.87248H52.163V6.22553H52.7229V4.94473H53.4319V6.22553H53.9929V6.87248H53.4319V10.1829H52.7229ZM57.5861 7.82725C57.4973 7.50121 57.3437 7.24801 57.1246 7.06992C56.9067 6.89068 56.6467 6.80078 56.3423 6.80078C56.0299 6.80078 55.7602 6.89296 55.5298 7.07561C55.3022 7.25996 55.1428 7.51032 55.0575 7.82668H57.5861V7.82725ZM55.0359 8.46737C55.0956 8.79738 55.2458 9.06651 55.4837 9.27135C55.7226 9.47619 56.006 9.57861 56.3349 9.57861C56.5693 9.57861 56.7827 9.52171 56.9773 9.40905C57.1696 9.29753 57.3227 9.13764 57.4387 8.93166H58.241C58.0589 9.37035 57.8029 9.70606 57.4763 9.93878C57.1485 10.1709 56.7685 10.287 56.3349 10.287C56.0594 10.2905 55.7861 10.238 55.5315 10.1328C55.283 10.0246 55.0591 9.86678 54.8737 9.66908C54.4995 9.27164 54.2891 8.74753 54.2848 8.20164C54.2848 7.92284 54.3326 7.66281 54.427 7.42098C54.5215 7.17916 54.6615 6.9584 54.8458 6.75925C55.0416 6.54303 55.2635 6.38087 55.5104 6.27162C55.7585 6.16237 56.0282 6.10832 56.3207 6.10832C56.6672 6.10832 56.9909 6.18968 57.2897 6.35128C57.5884 6.51344 57.8342 6.73933 58.0299 7.02895C58.1431 7.20932 58.2302 7.40562 58.2843 7.6207C58.34 7.83578 58.3668 8.08159 58.3668 8.35584V8.46793H55.0359V8.46737ZM59.7056 10.1829H58.9932V6.22553H59.6624V6.68243C59.7801 6.50775 59.9156 6.37802 60.068 6.29324C60.2205 6.20846 60.3969 6.16408 60.5983 6.1618V6.90605C60.2791 6.93051 60.0504 7.02383 59.9127 7.18827C59.775 7.35271 59.7062 7.61672 59.7062 7.98144V10.1829H59.7056ZM61.8268 10.1829H61.1144V6.22553H61.7989V6.67617C61.9469 6.49808 62.1102 6.36778 62.29 6.28528C62.4825 6.19962 62.6915 6.15727 62.9022 6.16123C63.42 6.16123 63.8177 6.31373 64.096 6.61814C64.3713 6.92255 64.5107 7.35953 64.5107 7.92796V10.1823H63.795V8.08272C63.795 7.66281 63.717 7.351 63.5617 7.14844C63.4063 6.94588 63.1639 6.84459 62.8373 6.84459C62.4829 6.84459 62.2262 6.96409 62.0664 7.20249C61.9076 7.44147 61.8274 7.83464 61.8274 8.38486V10.1829H61.8268ZM65.8809 8.17888C65.8809 8.57889 66.014 8.91403 66.2786 9.186C66.5432 9.45798 66.8664 9.59226 67.251 9.59226C67.6009 9.59226 67.9099 9.4557 68.1768 9.18429C68.4436 8.91175 68.5779 8.59368 68.5779 8.22896C68.5779 7.8409 68.4448 7.50804 68.1813 7.23094C67.9156 6.95441 67.6009 6.81615 67.2368 6.81615C66.8624 6.81615 66.5432 6.94702 66.2786 7.21103C66.014 7.47504 65.8809 7.79823 65.8809 8.17888ZM68.5415 10.1829V9.69639C68.3699 9.87899 68.1632 10.0251 67.9338 10.126C67.7085 10.2227 67.4695 10.2722 67.2146 10.2722C66.62 10.2722 66.1267 10.0731 65.7329 9.67704C65.3398 9.28046 65.1429 8.78315 65.1429 8.18628C65.1429 7.90747 65.1918 7.64346 65.2908 7.39424C65.3887 7.14502 65.5287 6.92482 65.7119 6.73592C65.911 6.5271 66.1273 6.37347 66.3634 6.27389C66.6204 6.17053 66.8955 6.11965 67.1725 6.12425C67.4439 6.12425 67.6926 6.17204 67.919 6.26763C68.1478 6.36323 68.356 6.50946 68.5415 6.70349V6.22496H69.2618V10.1823H68.5415V10.1829ZM70.3293 10.1829V6.87248H69.7682V6.22553H70.3293V4.94473H71.0382V6.22553H71.5993V6.87248H71.0382V10.1829H70.3293ZM72.8186 5.76123H72.1131V4.94473H72.8186V5.76123ZM72.1131 10.1829V6.22553H72.8186V10.1829H72.1131ZM74.1757 8.20051C74.1757 8.59596 74.3003 8.92597 74.5512 9.18998C74.801 9.454 75.1134 9.58543 75.4878 9.58543C75.8548 9.58543 76.1615 9.45286 76.409 9.18771C76.6582 8.92256 76.7811 8.59084 76.7811 8.19311C76.7811 7.79254 76.6576 7.46138 76.409 7.19965C76.1609 6.93848 75.8519 6.80818 75.4798 6.80818C75.11 6.80818 74.801 6.94075 74.5506 7.20591C74.3003 7.47163 74.1757 7.80278 74.1757 8.20051ZM73.4377 8.20847C73.4377 7.92739 73.4855 7.66565 73.5799 7.42269C73.6749 7.17862 73.8168 6.95553 73.9976 6.76607C74.1967 6.5527 74.422 6.38769 74.6713 6.27389C74.9143 6.15968 75.1794 6.10043 75.4479 6.10035C75.7358 6.10035 76.0027 6.15213 76.2468 6.25512C76.4949 6.35811 76.7168 6.5106 76.9159 6.71202C77.1094 6.91117 77.2596 7.13592 77.3637 7.38514C77.4684 7.63436 77.5191 7.89211 77.5191 8.15897C77.5191 8.42924 77.4701 8.69269 77.3734 8.94987C77.2755 9.20649 77.1401 9.43124 76.9654 9.62242C76.764 9.84376 76.5376 10.0105 76.2878 10.1248C76.038 10.2392 75.77 10.2955 75.4878 10.2955C75.1976 10.2955 74.9302 10.2443 74.6855 10.1396C74.4366 10.032 74.2124 9.87456 74.0266 9.67704C73.8406 9.48052 73.6935 9.25059 73.593 8.99937C73.4907 8.74822 73.438 8.47966 73.4377 8.20847ZM78.8443 10.1829H78.1319V6.22553H78.8164V6.67617C78.9655 6.49808 79.1276 6.36778 79.3074 6.28528C79.5 6.19974 79.709 6.1574 79.9197 6.16123C80.4374 6.16123 80.8352 6.31373 81.1134 6.61814C81.3899 6.92255 81.5288 7.35953 81.5288 7.92796V10.1823H80.8118V8.08272C80.8118 7.66281 80.735 7.351 80.5797 7.14844C80.4232 6.94588 80.182 6.84459 79.8554 6.84459C79.4997 6.84459 79.2443 6.96409 79.0844 7.20249C78.9245 7.44147 78.8443 7.83464 78.8443 8.38486V10.1829ZM82.8995 8.17888C82.8995 8.57889 83.0315 8.91403 83.2972 9.186C83.422 9.31779 83.573 9.42201 83.7404 9.49198C83.9079 9.56194 84.0882 9.5961 84.2696 9.59226C84.6195 9.59226 84.9274 9.4557 85.1954 9.18429C85.4611 8.91175 85.5954 8.59368 85.5954 8.22896C85.5985 8.04465 85.5651 7.86154 85.497 7.69023C85.429 7.51892 85.3276 7.36281 85.1988 7.23094C84.9331 6.95441 84.6195 6.81615 84.2542 6.81615C83.8798 6.81615 83.5606 6.94702 83.2972 7.21103C83.1682 7.33652 83.0663 7.48718 82.9979 7.65367C82.9295 7.82016 82.896 7.99892 82.8995 8.17888ZM85.5601 10.1829V9.69639C85.378 9.88586 85.1743 10.0293 84.9513 10.126C84.7245 10.2235 84.48 10.2733 84.2332 10.2722C83.6386 10.2722 83.1453 10.0731 82.751 9.67704C82.3578 9.28046 82.1621 8.78315 82.1621 8.18628C82.1621 7.90747 82.211 7.64346 82.3089 7.39424C82.4079 7.14502 82.5467 6.92482 82.7299 6.73592C82.9291 6.5271 83.1464 6.37347 83.382 6.27389C83.6386 6.17043 83.9133 6.11954 84.1899 6.12425C84.4614 6.12425 84.71 6.17204 84.9376 6.26763C85.1652 6.36323 85.3735 6.50946 85.5601 6.70349V6.22496H86.2793V10.1823H85.5601V10.1829ZM87.1072 10.1829V4.94473H87.8116V10.1829H87.1072ZM47.1712 16.8936C47.1712 17.1667 47.2168 17.4262 47.3072 17.6691C47.3983 17.9115 47.5297 18.1226 47.6998 18.299C47.8791 18.4879 48.0868 18.6324 48.3212 18.736C48.5562 18.8395 48.7963 18.8902 49.041 18.8902C49.5826 18.8902 50.0356 18.6967 50.4003 18.3132C50.765 17.9274 50.9471 17.4495 50.9471 16.8788C50.9471 16.637 50.9027 16.4048 50.8162 16.1863C50.7262 15.9627 50.5962 15.7574 50.4327 15.5803C50.2537 15.3814 50.0363 15.2206 49.7937 15.1075C49.5567 15.0031 49.3 14.9507 49.041 14.9539C48.794 14.9539 48.5585 15.0005 48.336 15.0939C48.1124 15.1872 47.9149 15.3232 47.7431 15.5001C47.5627 15.686 47.4197 15.9049 47.322 16.1448C47.2219 16.3895 47.1712 16.6387 47.1712 16.8936ZM46.3792 16.8873C46.3792 16.5198 46.4492 16.1727 46.5875 15.8438C46.7299 15.5096 46.9378 15.2074 47.1991 14.955C47.442 14.713 47.7298 14.5207 48.0464 14.3889C48.3642 14.2586 48.7049 14.193 49.0484 14.196C49.4142 14.196 49.7539 14.2597 50.0674 14.3889C50.3881 14.5222 50.6796 14.717 50.9255 14.9624C51.1923 15.2242 51.392 15.5161 51.5257 15.8404C51.66 16.1647 51.7277 16.5135 51.7277 16.8879C51.7277 17.2577 51.6697 17.6014 51.5542 17.9138C51.4395 18.2266 51.2639 18.5136 51.0376 18.7582C50.765 19.0518 50.4629 19.2703 50.1283 19.4193C49.7856 19.57 49.4148 19.6462 49.0404 19.643C48.6657 19.6463 48.2947 19.5691 47.9525 19.4165C47.6097 19.2586 47.3048 19.0288 47.0586 18.7428C46.8359 18.4977 46.6634 18.2112 46.551 17.8996C46.4354 17.5747 46.3772 17.2322 46.3792 16.8873ZM53.0996 19.5377H52.3872V15.5803H53.0563V16.0373C53.1741 15.8626 53.3095 15.7328 53.462 15.6481C53.6145 15.5633 53.7909 15.5189 53.9923 15.5166V16.2609C53.6731 16.2853 53.4444 16.3786 53.3067 16.5431C53.1679 16.7075 53.1002 16.9715 53.1002 17.3363V19.5377H53.0996ZM54.5665 19.8541H55.3255C55.4353 20.0384 55.5787 20.1795 55.7591 20.2763C55.9366 20.373 56.1426 20.4231 56.3713 20.4231C56.7724 20.4231 57.0945 20.3019 57.3392 20.0606C57.585 19.8193 57.7062 19.4996 57.7062 19.1013V19.0512C57.534 19.2335 57.3269 19.3794 57.0973 19.4802C56.8708 19.5786 56.6262 19.6286 56.3793 19.627C55.7847 19.627 55.2913 19.4279 54.897 19.0313C54.505 18.6347 54.3081 18.1368 54.3081 17.5411C54.3081 17.2623 54.3571 16.9977 54.4549 16.7485C54.5539 16.4993 54.6939 16.2796 54.876 16.0902C55.0751 15.8813 55.2925 15.7277 55.5281 15.6281C55.7846 15.5247 56.0594 15.4738 56.336 15.4785C56.6052 15.4785 56.8527 15.5263 57.0825 15.6219C57.3101 15.7175 57.5212 15.8637 57.7136 16.0577V15.5792H58.4259V18.8805C58.4259 19.5696 58.2473 20.1084 57.8905 20.4987C57.5326 20.8891 57.0404 21.0831 56.4157 21.0831C55.9622 21.0831 55.5741 20.9761 55.2532 20.7622C54.9323 20.5477 54.7036 20.2455 54.5665 19.8541ZM55.0455 17.5337C55.0455 17.9337 55.1775 18.2694 55.4433 18.5408C55.568 18.6727 55.719 18.777 55.8865 18.8471C56.0539 18.9171 56.2342 18.9514 56.4157 18.9477C56.7656 18.9477 57.0734 18.8111 57.3414 18.5397C57.6094 18.2671 57.7414 17.9485 57.7414 17.5838C57.7414 17.1957 57.6106 16.8634 57.3448 16.5858C57.0803 16.3098 56.7656 16.171 56.4015 16.171C56.0282 16.171 55.7067 16.3018 55.4433 16.5658C55.3143 16.6914 55.2125 16.8421 55.1441 17.0086C55.0757 17.175 55.0422 17.3538 55.0455 17.5337ZM59.7898 17.5337C59.7898 17.9337 59.923 18.2694 60.1875 18.5408C60.4521 18.8122 60.7753 18.9477 61.1599 18.9477C61.5099 18.9477 61.8177 18.8111 62.0857 18.5397C62.3526 18.2671 62.4857 17.9485 62.4857 17.5838C62.4857 17.1957 62.3537 16.8634 62.0902 16.5858C61.8245 16.3098 61.5099 16.171 61.1457 16.171C60.7713 16.171 60.4521 16.3018 60.1875 16.5658C60.0587 16.6915 59.9569 16.8422 59.8885 17.0086C59.8201 17.1751 59.7865 17.3538 59.7898 17.5337ZM62.4504 19.5377V19.0518C62.2782 19.2341 62.0712 19.38 61.8416 19.4808C61.6151 19.5791 61.3705 19.6291 61.1235 19.6276C60.5289 19.6276 60.0356 19.4285 59.6413 19.0319C59.2493 18.6353 59.0524 18.1374 59.0524 17.5417C59.0524 17.2629 59.1013 16.9983 59.2003 16.7491C59.2982 16.4998 59.4382 16.2802 59.6214 16.0907C59.8205 15.8819 60.0368 15.7283 60.2729 15.6287C60.5295 15.5254 60.8042 15.4745 61.0809 15.4791C61.3534 15.4791 61.6021 15.5269 61.8285 15.6225C62.0572 15.718 62.2644 15.8643 62.451 16.0583V15.5798H63.1713V19.5371H62.4504V19.5377ZM64.7093 19.5377H63.9969V15.5803H64.6814V16.031C64.8305 15.8535 64.9927 15.7226 65.1725 15.6407C65.365 15.555 65.574 15.5127 65.7847 15.5166C66.3025 15.5166 66.7002 15.6691 66.9785 15.9735C67.255 16.2779 67.3938 16.7149 67.3938 17.2839V19.5377H66.6769V17.4387C66.6769 17.0188 66.6001 16.7064 66.4436 16.5038C66.2883 16.3013 66.0459 16.2006 65.7193 16.2006C65.3648 16.2006 65.1082 16.3195 64.9489 16.5579C64.789 16.7974 64.7088 17.1906 64.7088 17.7408V19.5377H64.7093ZM68.9324 15.116H68.228V14.2995H68.9324V15.116ZM68.228 19.5377V15.5803H68.9324V19.5377H68.228ZM72.1677 19.5377H69.4337V18.9619L71.3438 16.2273H69.6635V15.5803H72.0596V16.3109L70.2747 18.8686H72.1671V19.5377H72.1677ZM73.2869 17.5337C73.2869 17.9337 73.4189 18.2694 73.6846 18.5408C73.8094 18.6727 73.9604 18.777 74.1278 18.8471C74.2953 18.9171 74.4755 18.9514 74.657 18.9477C75.007 18.9477 75.3148 18.8111 75.5828 18.5397C75.8496 18.2671 75.9828 17.9485 75.9828 17.5838C75.9828 17.1957 75.8508 16.8634 75.5862 16.5858C75.3205 16.3098 75.007 16.171 74.6428 16.171C74.2684 16.171 73.9481 16.3018 73.6846 16.5658C73.5556 16.6913 73.4537 16.842 73.3853 17.0085C73.3169 17.175 73.2834 17.3537 73.2869 17.5337ZM75.9469 19.5377V19.0518C75.7649 19.2407 75.5612 19.3841 75.3381 19.4808C75.1115 19.579 74.867 19.629 74.62 19.6276C74.0255 19.6276 73.5321 19.4285 73.1378 19.0319C72.7458 18.6353 72.5489 18.1374 72.5489 17.5417C72.5489 17.2629 72.5979 16.9983 72.6957 16.7491C72.7947 16.4998 72.9347 16.2802 73.1168 16.0907C73.3159 15.8819 73.5333 15.7283 73.7688 15.6287C74.0254 15.5253 74.3002 15.4744 74.5768 15.4791C74.8482 15.4791 75.0969 15.5269 75.3245 15.6225C75.5521 15.718 75.7603 15.8643 75.9469 16.0583V15.5798H76.6662V19.5371H75.9469V19.5377ZM77.7353 19.5377V16.2279H77.1743V15.5809H77.7353V14.3001H78.4431V15.5809H79.0041V16.2279H78.4431V19.5377H77.7353ZM80.2235 15.116H79.5191V14.2995H80.2235V15.116ZM79.5191 19.5377V15.5803H80.2235V19.5377H79.5191ZM81.5805 17.5559C81.5805 17.9513 81.7063 18.2814 81.9561 18.5448C82.207 18.8094 82.5182 18.9403 82.8926 18.9403C83.2602 18.9403 83.5675 18.8082 83.815 18.5425C84.0631 18.2779 84.1871 17.9457 84.1871 17.5479C84.1871 17.1479 84.0625 16.8168 83.815 16.5545C83.5669 16.2933 83.2574 16.163 82.8858 16.163C82.516 16.163 82.207 16.2956 81.9555 16.5607C81.7063 16.8264 81.5805 17.1582 81.5805 17.5559ZM80.8426 17.5639C80.8426 17.2828 80.8904 17.0205 80.9848 16.7769C81.0793 16.5328 81.2192 16.3144 81.4036 16.1203C81.6027 15.907 81.8269 15.7419 82.0761 15.6281C82.3196 15.5142 82.5851 15.4551 82.854 15.4552C83.1407 15.4552 83.4076 15.5064 83.6528 15.6099C83.9038 15.716 84.131 15.8714 84.3208 16.0668C84.5154 16.2654 84.6645 16.4902 84.7686 16.74C84.8733 16.9892 84.9251 17.2464 84.9251 17.5132C84.9251 17.7835 84.8762 18.0475 84.7783 18.3047C84.6816 18.5613 84.545 18.7861 84.3703 18.9772C84.1689 19.1986 83.9436 19.3653 83.6926 19.4797C83.4429 19.594 83.1749 19.6509 82.8926 19.6509C82.6177 19.6538 82.3451 19.6006 82.0915 19.4945C81.8426 19.3871 81.6184 19.2299 81.4326 19.0324C81.0568 18.6355 80.8458 18.1105 80.8426 17.5639ZM86.2503 19.5377H85.5379V15.5803H86.2213V16.031C86.3703 15.8535 86.5336 15.7226 86.7123 15.6407C86.891 15.5587 87.0958 15.5166 87.3257 15.5166C87.8435 15.5166 88.2412 15.6691 88.5194 15.9735C88.7948 16.2779 88.9342 16.7149 88.9342 17.2839V19.5377H88.2184V17.4387C88.2184 17.0188 88.1405 16.7064 87.9851 16.5038C87.8298 16.3013 87.5874 16.2006 87.2608 16.2006C86.9063 16.2006 86.6497 16.3195 86.4898 16.5579C86.3311 16.7974 86.2508 17.1906 86.2508 17.7408V19.5377H86.2503ZM92.7823 19.5377H92.0734V16.1994H91.6022V15.5809H92.0512V15.462C92.0512 15.058 92.1644 14.7525 92.3903 14.5471C92.6156 14.3422 92.9524 14.2398 93.4014 14.2398V14.8981H93.3394C93.1283 14.8981 92.9781 14.9459 92.887 15.0415C92.796 15.1371 92.7505 15.2981 92.7505 15.5229V15.5809H93.402V16.1994H92.7829V19.5377H92.7823ZM94.4296 17.5559C94.4296 17.9513 94.5553 18.2814 94.8051 18.5448C95.056 18.8094 95.3684 18.9403 95.7428 18.9403C95.9159 18.944 96.0878 18.9103 96.2467 18.8417C96.4057 18.7731 96.548 18.6711 96.664 18.5425C96.9132 18.2779 97.0361 17.9457 97.0361 17.5479C97.0361 17.1479 96.9126 16.8168 96.664 16.5545C96.4159 16.2933 96.1069 16.163 95.7348 16.163C95.365 16.163 95.056 16.2956 94.8045 16.5607C94.5553 16.8264 94.4296 17.1582 94.4296 17.5559ZM93.6916 17.5639C93.6916 17.2828 93.7405 17.0205 93.835 16.7769C93.9299 16.5329 94.0718 16.3098 94.2526 16.1203C94.4517 15.907 94.6771 15.7419 94.9263 15.6281C95.1693 15.5141 95.4345 15.455 95.703 15.4552C95.9909 15.4552 96.2577 15.5064 96.503 15.6099C96.7499 15.7129 96.9707 15.8654 97.171 16.0668C97.3644 16.2654 97.5146 16.4902 97.6188 16.74C97.7235 16.9892 97.7741 17.2464 97.7741 17.5132C97.7741 17.7835 97.7252 18.0475 97.6284 18.3047C97.5306 18.5613 97.3951 18.7861 97.2205 18.9772C97.0311 19.1891 96.8005 19.36 96.5428 19.4797C96.2919 19.594 96.025 19.6509 95.7428 19.6509C95.4526 19.6509 95.1852 19.5986 94.9405 19.4945C94.6916 19.3871 94.4674 19.2299 94.2816 19.0324C94.0973 18.8378 93.9527 18.6125 93.848 18.3548C93.7433 18.097 93.6916 17.8319 93.6916 17.5639ZM99.1073 19.5377H98.3949V15.5803H99.064V16.0373C99.1818 15.8626 99.3172 15.7328 99.4697 15.6481C99.6222 15.5633 99.7986 15.5189 100 15.5166V16.2609C99.6808 16.2853 99.4532 16.3786 99.3155 16.5431C99.1767 16.7075 99.1078 16.9715 99.1078 17.3363V19.5377H99.1073ZM46.3399 27.3824H47.0205C47.0324 27.6538 47.1126 27.87 47.2606 28.0316C47.4091 28.1927 47.6037 28.274 47.8404 28.274C48.1015 28.274 48.3104 28.1927 48.468 28.0316C48.625 27.8695 48.7041 27.6527 48.7041 27.3813C48.7041 27.1446 48.6461 26.9602 48.5306 26.8311C48.4168 26.7008 48.1749 26.5813 47.8074 26.4675C47.7748 26.4594 47.7424 26.4508 47.7101 26.4419C47.2714 26.3252 46.9539 26.1318 46.7576 25.8638C46.6708 25.7499 46.6031 25.6227 46.5573 25.4871C46.5127 25.3497 46.4904 25.206 46.4913 25.0615C46.4913 24.6126 46.6239 24.2501 46.8902 23.9724C47.157 23.697 47.5052 23.5576 47.9377 23.5576C48.3382 23.5576 48.6609 23.6811 48.9061 23.9286C49.1536 24.1767 49.2896 24.5175 49.3152 24.95H48.6068C48.5943 24.7411 48.5243 24.5721 48.3963 24.443C48.333 24.3794 48.2573 24.3295 48.1739 24.2964C48.0905 24.2634 48.0012 24.2478 47.9115 24.2507C47.7027 24.2507 47.5331 24.3218 47.4034 24.464C47.272 24.6074 47.2065 24.7918 47.2065 25.0165C47.2065 25.0968 47.219 25.1702 47.2424 25.2401C47.2663 25.3101 47.3038 25.3744 47.3539 25.4347C47.4569 25.5571 47.6776 25.6623 48.0156 25.7517C48.1715 25.7915 48.2916 25.8273 48.3752 25.8564C48.7212 25.9855 48.9829 26.1744 49.1622 26.4208C49.3402 26.6678 49.4301 26.9642 49.4301 27.3096C49.4301 27.8154 49.2868 28.2228 48.9977 28.5329C48.7104 28.8419 48.3286 28.9961 47.8546 28.9961C47.4074 28.9961 47.0455 28.847 46.7656 28.5517C46.4873 28.2569 46.3451 27.8666 46.3399 27.3824ZM50.3218 28.8925V25.5833H49.7613V24.9352H50.3218V23.6549H51.0307V24.9352H51.5918V25.5833H51.0307V28.8925H50.3218ZM52.6415 26.8891C52.6415 27.2891 52.7747 27.6248 53.0404 27.8962C53.1652 28.0281 53.3161 28.1324 53.4836 28.2024C53.6511 28.2725 53.8313 28.3068 54.0128 28.303C54.3616 28.303 54.6706 28.1665 54.9386 27.8951C55.2043 27.622 55.3386 27.305 55.3386 26.9392C55.3386 26.5511 55.2066 26.2188 54.942 25.9411C54.6763 25.6646 54.3616 25.5264 53.9975 25.5264C53.6231 25.5264 53.3039 25.6572 53.0404 25.9218C52.9112 26.0471 52.8092 26.1977 52.7406 26.364C52.672 26.5304 52.6383 26.7091 52.6415 26.8891ZM55.3033 28.8925V28.4066C55.1212 28.5955 54.9175 28.7389 54.6945 28.8356C54.4675 28.934 54.2226 28.984 53.9753 28.9824C53.3818 28.9824 52.8885 28.7833 52.4936 28.3867C52.1004 27.9901 51.9036 27.4934 51.9036 26.8965C51.9036 26.6177 51.9536 26.3531 52.0515 26.1039C52.1494 25.8547 52.2893 25.635 52.4726 25.4461C52.6717 25.2373 52.8891 25.0837 53.1246 24.9841C53.3813 24.8811 53.656 24.8304 53.9326 24.835C54.204 24.835 54.4527 24.8828 54.6802 24.9784C54.9078 25.074 55.1161 25.2208 55.3027 25.4143V24.9352H56.0219V28.8925H55.3033ZM57.5628 28.8925H56.8504V24.9352H57.5338V25.3864C57.6828 25.2089 57.8461 25.0774 58.0248 24.9949C58.2035 24.9124 58.4083 24.8714 58.6382 24.8714C59.1559 24.8714 59.5537 25.0239 59.8308 25.3283C60.1079 25.6328 60.2461 26.0697 60.2461 26.6387V28.8925H59.5303V26.7935C59.5303 26.3736 59.4524 26.0612 59.2971 25.8586C59.1417 25.6561 58.8993 25.5554 58.5727 25.5554C58.2183 25.5554 57.9616 25.6754 57.8017 25.9133C57.6419 26.1522 57.5628 26.5454 57.5628 27.0956V28.8925ZM61.6168 26.8891C61.6168 27.2891 61.7489 27.6248 62.0146 27.8962C62.1393 28.0281 62.2903 28.1324 62.4578 28.2024C62.6252 28.2725 62.8055 28.3068 62.987 28.303C63.3369 28.303 63.6447 28.1665 63.9127 27.8951C64.1807 27.622 64.3127 27.305 64.3127 26.9392C64.3127 26.5511 64.1819 26.2188 63.9161 25.9411C63.6516 25.6646 63.3369 25.5264 62.9728 25.5264C62.5995 25.5264 62.278 25.6572 62.0146 25.9218C61.8854 26.0471 61.7835 26.1977 61.7151 26.3641C61.6466 26.5305 61.6132 26.7092 61.6168 26.8891ZM64.2775 28.8925V28.4066C64.1053 28.5889 63.8982 28.7348 63.6686 28.8356C63.4421 28.934 63.1975 28.984 62.9506 28.9824C62.356 28.9824 61.8626 28.7833 61.4683 28.3867C61.0763 27.9901 60.8794 27.4934 60.8794 26.8965C60.8794 26.6177 60.9284 26.3531 61.0274 26.1039C61.1252 25.8547 61.2652 25.635 61.4473 25.4461C61.6464 25.2373 61.8638 25.0837 62.0994 24.9841C62.3561 24.8811 62.6308 24.8304 62.9073 24.835C63.1765 24.835 63.424 24.8828 63.6538 24.9784C63.8826 25.074 64.0937 25.2208 64.2849 25.4143V23.6549H64.9972V28.8925H64.2775ZM66.3611 26.8891C66.3611 27.2891 66.4943 27.6248 66.7588 27.8962C67.0234 28.1676 67.3466 28.303 67.7312 28.303C68.0812 28.303 68.389 28.1665 68.657 27.8951C68.9239 27.622 69.057 27.305 69.057 26.9392C69.057 26.5511 68.925 26.2188 68.6604 25.9411C68.3958 25.6646 68.0812 25.5264 67.717 25.5264C67.3426 25.5264 67.0234 25.6572 66.7588 25.9218C66.6299 26.0473 66.5281 26.1978 66.4597 26.3642C66.3913 26.5306 66.3578 26.7092 66.3611 26.8891ZM69.0229 28.8925V28.4066C68.8408 28.5955 68.6359 28.7389 68.4129 28.8356C68.1864 28.934 67.9418 28.984 67.6948 28.9824C67.1002 28.9824 66.6069 28.7833 66.2126 28.3867C65.8206 27.9901 65.6237 27.4934 65.6237 26.8965C65.6237 26.6177 65.6726 26.3531 65.7716 26.1039C65.8695 25.8547 66.0095 25.635 66.1927 25.4461C66.3918 25.2373 66.6081 25.0837 66.8442 24.9841C67.1009 24.8812 67.3756 24.8305 67.6522 24.835C67.9236 24.835 68.1734 24.8828 68.3998 24.9784C68.6286 25.074 68.8357 25.2208 69.0234 25.4143V24.9352H69.7426V28.8925H69.0229ZM71.2886 28.8925H70.5762V24.9352H71.2453V25.3921C71.3631 25.2174 71.4986 25.0877 71.651 25.0029C71.8035 24.9181 71.9799 24.8737 72.1813 24.872V25.6157C71.8621 25.6402 71.6334 25.7335 71.4968 25.899C71.358 26.0623 71.2892 26.3269 71.2892 26.6917V28.8925H71.2886ZM73.2346 26.8891C73.2346 27.2891 73.3677 27.6248 73.6323 27.8962C73.8969 28.1676 74.2201 28.303 74.6047 28.303C74.9546 28.303 75.2624 28.1665 75.5304 27.8951C75.7984 27.622 75.9304 27.305 75.9304 26.9392C75.9338 26.7549 75.9005 26.5719 75.8326 26.4006C75.7648 26.2293 75.6636 26.0731 75.535 25.9411C75.2693 25.6646 74.9546 25.5264 74.5905 25.5264C74.2172 25.5264 73.8969 25.6572 73.6323 25.9218C73.5034 26.0473 73.4016 26.1978 73.3332 26.3642C73.2647 26.5306 73.2312 26.7092 73.2346 26.8891ZM75.8952 28.8925V28.4066C75.7234 28.5889 75.5167 28.7347 75.2875 28.8356C75.0605 28.9339 74.8156 28.9839 74.5683 28.9824C73.9737 28.9824 73.4804 28.7833 73.086 28.3867C72.694 27.9901 72.4971 27.4934 72.4971 26.8965C72.4971 26.6177 72.5461 26.3531 72.6451 26.1039C72.7429 25.8547 72.8829 25.635 73.0661 25.4461C73.2653 25.2373 73.4815 25.0837 73.7176 24.9841C73.9744 24.8813 74.2491 24.8306 74.5256 24.835C74.7947 24.835 75.0434 24.8828 75.2721 24.9784C75.5009 25.074 75.7119 25.2208 75.9031 25.4143V23.6549H76.6155V28.8925H75.8952ZM78.1478 24.472H77.4434V23.6549H78.1478V24.472ZM77.4428 28.8925V24.9352H78.1472V28.8925H77.4428ZM81.3825 28.8925H78.6485V28.3167L80.5586 25.5827H78.8784V24.9346H81.2744V25.6658L79.4895 28.2228H81.382V28.8925H81.3825ZM82.5006 26.8891C82.5006 27.2891 82.6338 27.6248 82.8995 27.8962C83.0242 28.0281 83.1752 28.1324 83.3427 28.2024C83.5101 28.2725 83.6904 28.3068 83.8719 28.303C84.2207 28.303 84.5296 28.1665 84.7976 27.8951C85.0645 27.622 85.1976 27.305 85.1976 26.9392C85.1976 26.5511 85.0656 26.2188 84.801 25.9411C84.5353 25.6646 84.2207 25.5264 83.8565 25.5264C83.4821 25.5264 83.1629 25.6572 82.8995 25.9218C82.7702 26.047 82.6681 26.1976 82.5995 26.364C82.5308 26.5304 82.4972 26.7091 82.5006 26.8891ZM85.1624 28.8925V28.4066C84.9803 28.5955 84.7766 28.7389 84.5535 28.8356C84.3266 28.934 84.0817 28.984 83.8343 28.9824C83.2409 28.9824 82.7476 28.7833 82.3527 28.3867C81.9595 27.9901 81.7638 27.4934 81.7638 26.8965C81.7638 26.6177 81.8127 26.3531 81.9106 26.1039C82.0064 25.8591 82.1495 25.6356 82.3316 25.4461C82.5308 25.2373 82.7481 25.0837 82.9837 24.9841C83.2404 24.8811 83.5151 24.8304 83.7917 24.835C84.0631 24.835 84.3117 24.8828 84.5393 24.9784C84.7669 25.074 84.9752 25.2208 85.1618 25.4143V24.9352H85.881V28.8925H85.1624ZM86.949 28.8925V25.5833H86.3891V24.9352H86.949V23.6549H87.658V24.9352H88.219V25.5833H87.658V28.8925H86.949ZM89.4383 24.472H88.7339V23.6549H89.4383V24.472ZM88.7339 28.8925V24.9352H89.4383V28.8925H88.7339ZM90.7954 26.9113C90.7954 27.3067 90.9211 27.6367 91.1709 27.9002C91.4207 28.1648 91.7331 28.2956 92.1075 28.2956C92.4745 28.2956 92.7812 28.1636 93.0298 27.8979C93.2779 27.6333 93.402 27.301 93.402 26.9033C93.402 26.5033 93.2773 26.1722 93.0298 25.9099C92.7806 25.6487 92.4722 25.5184 92.0995 25.5184C91.9253 25.515 91.7524 25.5487 91.5922 25.6173C91.432 25.6859 91.2882 25.7877 91.1704 25.9161C90.9211 26.1824 90.7954 26.5136 90.7954 26.9113ZM90.0574 26.9187C90.0574 26.6365 90.1052 26.3753 90.1997 26.1318C90.2941 25.8871 90.4341 25.6697 90.6184 25.4751C90.8176 25.2618 91.0418 25.0973 91.291 24.983C91.5345 24.8692 91.8 24.8103 92.0688 24.8106C92.3556 24.8106 92.6224 24.8618 92.8677 24.9648C93.3712 25.1835 93.7709 25.588 93.9835 26.0942C94.0882 26.344 94.1399 26.6023 94.1399 26.8675C94.1399 27.1377 94.0899 27.4018 93.9931 27.6589C93.8964 27.9161 93.7599 28.1403 93.5852 28.3315C93.3964 28.5439 93.1656 28.715 92.9075 28.8339C92.6577 28.9483 92.3897 29.0052 92.1075 29.0052C91.8173 29.0052 91.5499 28.9528 91.3052 28.8487C91.0565 28.7411 90.8323 28.5839 90.6463 28.3867C90.462 28.1921 90.3174 27.9668 90.2127 27.709C90.1081 27.4513 90.0574 27.1878 90.0574 26.9187ZM95.4651 28.8925H94.7527V24.9352H95.4361V25.3864C95.5852 25.2089 95.7485 25.0774 95.9271 24.9949C96.1198 24.9096 96.3287 24.8674 96.5394 24.8714C97.0583 24.8714 97.456 25.0239 97.7331 25.3283C98.0102 25.6328 98.1485 26.0697 98.1485 26.6387V28.8925H97.4327V26.7935C97.4327 26.3736 97.3547 26.0612 97.1994 25.8586C97.0441 25.6561 96.8017 25.5554 96.4751 25.5554C96.1206 25.5554 95.864 25.6754 95.7041 25.9133C95.5442 26.1522 95.4651 26.5454 95.4651 27.0956V28.8925ZM42.1311 3.19849H42.6779V30.7508H42.1311V3.19849Z" fill="white"/>
</svg>
