<svg width="100" height="28" viewBox="0 0 100 28" fill="none" xmlns="http://www.w3.org/2000/svg">
<path d="M3.98643 0.535129L3.71858 0.747178L3.6851 8.84968C3.66277 15.6018 3.6851 16.9633 3.80786 17.0191C3.93063 17.0638 5.33685 16.316 6.45289 15.6129C6.54218 15.5571 6.82119 15.4009 7.06672 15.2781C7.31225 15.1442 7.62474 14.9321 7.76983 14.7982C8.01536 14.575 8.01536 14.5638 8.01536 10.8474C8.01536 7.81176 8.03768 7.13097 8.16045 7.13097C8.32785 7.13097 8.75195 7.34302 9.29881 7.68899C9.48854 7.81176 9.71175 7.94568 9.80104 7.99033C9.89032 8.03497 10.4149 8.3363 10.9729 8.67111C11.5197 9.00593 12.0666 9.31842 12.2005 9.37422C12.3233 9.43003 12.58 9.57511 12.7586 9.69788C12.9483 9.82064 13.1715 9.95457 13.2608 9.99921C13.3501 10.0439 13.9081 10.3563 14.4884 10.7023C15.0688 11.0483 15.6268 11.3608 15.7161 11.4054C15.8054 11.4501 16.0397 11.584 16.2183 11.7068C16.408 11.8295 16.6536 11.9746 16.7763 12.0304C16.8991 12.0862 17.0888 12.2313 17.2004 12.3541C17.4013 12.5661 17.3902 12.5773 16.754 12.9456C16.3969 13.1576 16.0397 13.3585 15.9393 13.4143C15.85 13.459 15.6268 13.5929 15.4371 13.7156C15.2585 13.8384 15.0018 13.9835 14.8679 14.0393C14.7451 14.0951 14.3099 14.3406 13.9193 14.575C13.5286 14.8205 13.1269 15.0437 13.0376 15.0884C12.9483 15.133 12.7251 15.267 12.5354 15.3897C12.3568 15.5125 12.1224 15.6464 12.0331 15.6911C11.9438 15.7357 11.3747 16.0593 10.772 16.4165C10.1582 16.7736 9.65595 17.0638 9.63363 17.0638C9.61131 17.0638 9.09793 17.354 8.49526 17.7111C7.8926 18.0682 7.32341 18.3919 7.23413 18.4365C7.14484 18.4812 6.96628 18.5816 6.84351 18.6597C6.72074 18.7379 6.1404 19.0727 5.56006 19.4075C4.97971 19.7423 4.39937 20.0771 4.2766 20.1552C4.15384 20.2334 3.97527 20.3227 3.88598 20.3673C3.70742 20.4566 1.60925 21.6731 1.31907 21.8628C1.22979 21.9186 0.939618 22.0748 0.671767 22.2199C0.403915 22.3539 0.136064 22.5547 0.0802617 22.6663C0.0244593 22.778 -0.00902211 23.8605 0.00213837 25.1217C0.0356198 27.789 0.00213838 27.722 1.24095 26.9743C1.67621 26.7064 2.12263 26.4497 2.21191 26.4051C2.3012 26.3605 2.53557 26.2265 2.71413 26.1038C2.90386 25.981 3.12707 25.8471 3.21636 25.8024C3.30564 25.7578 4.00875 25.356 4.76766 24.9096C5.51541 24.4632 6.16272 24.0949 6.18504 24.0949C6.20736 24.0949 6.72074 23.8047 7.31225 23.4476C7.91492 23.0904 8.4841 22.7668 8.57338 22.7222C8.66267 22.6775 8.89704 22.5436 9.07561 22.4208C9.26533 22.2981 9.48854 22.1641 9.57783 22.1195C9.77872 22.0302 11.8992 20.7914 12.1447 20.6351C12.234 20.5682 12.3903 20.4901 12.4796 20.4454C12.5688 20.4008 13.1269 20.0883 13.7072 19.7423C14.2875 19.3963 14.8456 19.0838 14.9349 19.0392C15.0241 18.9946 15.2585 18.8606 15.4371 18.7379C15.6268 18.6151 15.8723 18.47 16.0063 18.4142C16.129 18.3584 16.5643 18.1129 16.9549 17.8673C17.3455 17.633 17.9705 17.2647 18.3388 17.0638C20.5597 15.8361 21.3521 14.9768 21.7539 13.3474C22.0776 12.0416 21.5307 10.2447 20.5597 9.3519C20.2249 9.03941 19.0977 8.29166 18.6178 8.06845C18.5285 8.02381 18.1268 7.78944 17.7361 7.54391C17.3455 7.30954 16.9103 7.06401 16.7875 7.0082C16.6536 6.9524 16.408 6.80732 16.2183 6.68455C16.0397 6.56179 15.8054 6.42786 15.7161 6.38322C15.6268 6.33858 15.0688 6.02608 14.4884 5.68011C13.9081 5.33413 13.3501 5.02164 13.2608 4.977C13.1715 4.93236 12.9483 4.79843 12.7586 4.67566C12.58 4.5529 12.3456 4.41897 12.2563 4.37433C12.1671 4.32969 11.7653 4.10648 11.3747 3.86095C10.984 3.62658 10.5488 3.38105 10.426 3.32525C10.2921 3.26945 10.0466 3.12436 9.85684 3.00159C9.67827 2.87883 9.4439 2.7449 9.35462 2.70026C9.26533 2.65562 8.74079 2.35429 8.18277 2.01947C7.6359 1.68466 7.08904 1.37216 6.95511 1.31636C6.83235 1.26056 6.58682 1.11547 6.39709 1.00387C5.24756 0.267278 4.49981 0.122192 3.98643 0.535129ZM91.3283 4.73147C91.1274 4.95468 90.9154 5.24485 90.8819 5.37877C90.8149 5.60198 90.6029 6.19349 90.3685 6.74035C90.2569 7.01936 89.8551 8.04613 89.6319 8.63763C89.5315 8.88316 89.4199 9.1845 89.3641 9.30726C89.2301 9.63092 88.8172 10.6912 88.6386 11.1711C88.3708 11.8965 88.1253 12.5326 88.0248 12.767C87.9244 13.0125 87.5561 13.9612 87.2882 14.6643C87.1878 14.9098 87.0427 15.267 86.9646 15.4678C86.8753 15.6576 86.8083 15.8696 86.8083 15.9254C86.8083 15.9924 86.7414 16.1821 86.6521 16.3607C86.5628 16.5281 86.4177 16.8741 86.3284 17.1196C86.0829 17.7669 85.7927 18.5258 85.6365 18.9053C85.5583 19.0838 85.4021 19.4633 85.3017 19.7423C85.2012 20.0213 85.045 20.4008 84.9668 20.5793C84.8887 20.7691 84.7883 21.0816 84.7548 21.2825L84.6655 21.6396H87.9913L88.248 20.9923C88.382 20.6463 88.5717 20.1776 88.6498 19.9655C89.0069 19.0057 89.2971 18.3361 89.4087 18.2022C89.4868 18.1017 90.1788 18.0682 92.422 18.0906C94.8662 18.124 95.3349 18.1464 95.4019 18.2914C95.4577 18.3807 95.5693 18.6597 95.6586 18.9053C95.7479 19.1508 95.9153 19.5749 96.0157 19.8539C96.1162 20.1329 96.2836 20.557 96.3728 20.8025C96.6853 21.6396 96.5514 21.5838 98.3483 21.6173L100 21.6507L99.9219 21.2825C99.8884 21.0816 99.7768 20.7133 99.6763 20.4677C99.5871 20.2222 99.4308 19.8204 99.3415 19.5749C99.2411 19.3294 99.096 18.9276 99.0067 18.6821C98.9063 18.4365 98.7612 18.0348 98.6719 17.7892C98.5715 17.5437 98.4375 17.1531 98.3483 16.9187C98.259 16.6955 98.125 16.316 98.0358 16.0817C97.8014 15.4455 97.567 14.8205 97.355 14.2737C97.2545 13.9947 97.0983 13.5817 97.009 13.3474C96.9197 13.1241 96.7858 12.7447 96.6965 12.5103C96.6072 12.2871 96.4621 11.8965 96.3728 11.651C96.2724 11.4054 96.038 10.7804 95.8483 10.2559C95.6474 9.73136 95.4242 9.12869 95.3461 8.91665C94.5983 6.97472 94.3974 6.45018 94.2412 5.98144C94.0291 5.35645 93.7725 4.93236 93.393 4.59754C93.1698 4.39665 92.9801 4.35201 92.4109 4.34085C91.7636 4.34085 91.6966 4.36317 91.3283 4.73147ZM92.6787 9.80948C92.7569 9.96573 92.9019 10.3898 93.0024 10.7581C93.1028 11.1264 93.2591 11.6063 93.3372 11.8184C93.4153 12.0304 93.5604 12.488 93.6497 12.8228C93.7501 13.1576 93.9622 13.8384 94.1184 14.3183C94.2747 14.8094 94.364 15.2446 94.3082 15.3004C94.2524 15.3562 93.3595 15.3786 92.3216 15.3674L90.4355 15.3339L90.469 14.9656C90.4913 14.7647 90.5806 14.4634 90.6698 14.296C90.748 14.1286 90.8261 13.9054 90.8261 13.7938C90.8261 13.6933 90.8707 13.5148 90.9377 13.4032C91.1163 13.1018 91.8082 11.0371 92.0761 9.99921C92.2323 9.40771 92.4555 9.34074 92.6787 9.80948ZM31.5416 4.74263C31.4412 4.84307 31.4189 21.0258 31.5193 21.3829L31.5863 21.6396H34.2313C37.0103 21.6396 38.104 21.5168 39.2424 21.0927C39.7892 20.8918 40.6598 20.4231 41.0392 20.1441C41.3405 19.9097 42.3338 18.9053 42.6463 18.5258C43.0481 18.0124 43.9521 16.2491 43.9521 15.9701C43.9521 15.8473 44.0191 15.5794 44.1083 15.3786C44.4655 14.4857 44.4097 11.5617 44.0079 10.3675C43.6284 9.27378 43.3048 8.62647 42.7356 7.8564C42.1106 7.0082 41.2624 6.22697 40.6151 5.89216C40.3361 5.74707 40.0236 5.5685 39.9343 5.50154C39.845 5.43458 39.4879 5.30065 39.1531 5.20021C38.8183 5.11092 38.3384 4.96584 38.0928 4.88771C37.5795 4.74263 31.6756 4.59754 31.5416 4.74263ZM36.5862 7.63319C38.1598 7.86756 38.8629 8.16889 39.5995 8.95013C40.6039 9.98805 40.9611 11.0929 40.9722 13.2134C40.9834 14.363 40.9388 14.7759 40.7825 15.2223C40.0571 17.1642 39.3205 17.9343 37.5571 18.5258C37.0438 18.6932 36.6643 18.7379 35.8273 18.7155L34.7447 18.6821L34.7112 13.2916C34.7001 9.69788 34.7224 7.83408 34.8005 7.68899C34.9456 7.42114 35.1576 7.42114 36.5862 7.63319ZM46.6306 13.1576V21.6396L50.9609 21.6173L55.28 21.5838V18.7937L52.6015 18.7379L49.9229 18.6821L49.8895 16.5169C49.8671 15.0214 49.9006 14.3072 49.9899 14.2067C50.0904 14.0839 50.6149 14.0505 52.5568 14.0505C54.1081 14.0505 55.001 14.0058 55.0121 13.9389V11.4836C55.001 11.4166 54.0188 11.3608 52.4675 11.3496L49.9229 11.3161V7.52159L52.4787 7.4881C54.1751 7.47694 55.0902 7.42114 55.1907 7.33186C55.3023 7.24257 55.3358 6.90776 55.3135 5.97028L55.28 4.73147L50.9609 4.69799L46.6306 4.67566V13.1576ZM58.3491 13.1576V21.6396H59.8334C60.8379 21.6396 61.3624 21.5949 61.4517 21.5057C61.5522 21.4052 61.5856 20.4231 61.5856 17.7669C61.5856 15.5348 61.6303 14.1621 61.6972 14.1621C61.7531 14.1621 61.8535 14.229 61.9205 14.296C62.0655 14.4857 63.2932 16.2044 63.9293 17.1308C64.2084 17.5325 64.5097 17.9566 64.599 18.0682C64.6883 18.191 65.0454 18.6932 65.3802 19.1843C65.715 19.6865 66.2507 20.4231 66.5521 20.836L67.1212 21.5838L69.1636 21.6173C70.9381 21.6396 71.206 21.6173 71.1502 21.4833C71.1055 21.3829 70.3355 20.3227 69.4315 19.1062C68.5163 17.8897 67.6904 16.7736 67.59 16.6174C67.5007 16.4611 67.2998 16.2156 67.1659 16.0593C67.032 15.9031 66.7976 15.6018 66.6637 15.3786C66.5186 15.1665 66.0052 14.4411 65.503 13.7826C65.0007 13.1241 64.599 12.5215 64.599 12.4322C64.599 12.3541 64.6659 12.209 64.7441 12.1309C64.8222 12.0527 65.0789 11.7402 65.3244 11.4278C65.5699 11.1264 66.1503 10.4233 66.6079 9.86529C67.0654 9.30726 67.6235 8.62647 67.8467 8.35862C68.0699 8.07961 68.8065 7.17561 69.4873 6.34974C70.168 5.52386 70.6926 4.80959 70.6703 4.76495C70.6368 4.72031 69.7774 4.67566 68.7507 4.67566H66.8757L66.4405 5.25601C66.1949 5.57966 65.782 6.17117 65.5141 6.56179C65.2463 6.9524 64.9784 7.33186 64.9226 7.39882C64.5543 7.82292 62.0321 11.305 62.0321 11.3831C62.0321 11.4389 61.9316 11.4836 61.8089 11.4836C61.5856 11.4836 61.5856 11.4054 61.5856 8.14657C61.5856 5.21137 61.5633 4.79843 61.4071 4.74263C61.3066 4.70915 60.5812 4.67566 59.7888 4.67566H58.3491V13.1576ZM73.0475 4.74263C72.9358 4.85423 72.947 21.3271 73.0586 21.5057C73.1367 21.6061 73.5274 21.6396 74.6546 21.6173L76.1501 21.5838L76.1835 18.3696C76.2059 15.412 76.2282 15.1553 76.3956 15.1888C76.5518 15.2223 77.9915 17.3651 78.438 18.2356C78.5049 18.3584 78.65 18.6039 78.7728 18.7937C78.8955 18.9722 79.0295 19.2066 79.0741 19.2959C79.1188 19.3852 79.2973 19.6753 79.4647 19.9209C79.6321 20.1776 79.7772 20.4343 79.7884 20.4789C79.7884 20.5347 79.9558 20.8025 80.1567 21.0816L80.525 21.5838L82.3888 21.6173C84.2414 21.6396 84.2526 21.6396 84.1856 21.4164C84.1186 21.1932 80.3687 15.5013 80.2236 15.3897C80.179 15.3562 80.0786 15.2112 80.0004 15.0661C79.8777 14.8205 79.8888 14.7647 80.112 14.5862C80.246 14.4746 80.4357 14.3853 80.525 14.3853C81.1723 14.3853 82.5897 13.1353 83.0807 12.142C83.5829 11.1264 83.6834 10.7358 83.6834 9.8318C83.6834 7.45462 82.4892 5.80287 80.112 4.89887C79.6768 4.73147 73.2037 4.58638 73.0475 4.74263ZM79.2973 7.75596C80.804 8.79388 80.8375 10.9813 79.3531 12.0527C78.8509 12.421 78.7839 12.4322 77.679 12.4657C76.8978 12.4992 76.4849 12.4657 76.3733 12.3764C76.2393 12.2648 76.2059 11.8072 76.2059 9.86529C76.2059 8.57067 76.2393 7.46578 76.284 7.4323C76.3175 7.38766 76.8867 7.35418 77.534 7.35418C78.7058 7.35418 78.717 7.35418 79.2973 7.75596Z" fill="white"/>
</svg>
