<svg width="50" height="33" viewBox="0 0 50 33" fill="none" xmlns="http://www.w3.org/2000/svg">
<path d="M5.39768 10.9275H22.7272L19.8863 13.7684C19.8026 13.8464 19.7354 13.9405 19.6888 14.0451C19.6423 14.1496 19.6172 14.2625 19.6152 14.3769C19.6132 14.4913 19.6342 14.605 19.6771 14.7111C19.72 14.8173 19.7838 14.9137 19.8647 14.9946C19.9456 15.0755 20.042 15.1393 20.1481 15.1822C20.2543 15.2251 20.3679 15.2461 20.4824 15.2441C20.5968 15.2421 20.7097 15.217 20.8142 15.1704C20.9187 15.1239 21.0128 15.0567 21.0909 14.973L24.9147 11.1491C25.0743 10.9893 25.164 10.7727 25.164 10.5468C25.164 10.321 25.0743 10.1044 24.9147 9.94455L21.0909 6.12069C21.0103 6.0416 20.9149 5.97915 20.8102 5.93692C20.7055 5.89469 20.5935 5.87349 20.4806 5.87455C20.3676 5.8756 20.2561 5.89889 20.1521 5.94307C20.0482 5.98725 19.954 6.05147 19.875 6.13205C19.7959 6.21264 19.7334 6.30801 19.6912 6.41273C19.649 6.51744 19.6278 6.62945 19.6288 6.74236C19.6299 6.85527 19.6532 6.96686 19.6973 7.07077C19.7415 7.17468 19.8057 7.26887 19.8863 7.34796L21.7613 9.22296H5.39768C5.17165 9.22296 4.95487 9.31275 4.79503 9.47259C4.6352 9.63242 4.54541 9.8492 4.54541 10.0752C4.54541 10.3013 4.6352 10.5181 4.79503 10.6779C4.95487 10.8377 5.17165 10.9275 5.39768 10.9275Z" fill="#DC0C1C"/>
<path d="M23.8637 19.1665C23.8637 18.9405 23.7739 18.7237 23.6141 18.5639C23.4542 18.404 23.2375 18.3143 23.0114 18.3143H5.7387L8.52279 15.5358C8.60151 15.456 8.66373 15.3614 8.7059 15.2576C8.74808 15.1537 8.76938 15.0425 8.76858 14.9304C8.76779 14.8183 8.74493 14.7074 8.70129 14.6041C8.65765 14.5009 8.5941 14.4072 8.51427 14.3285C8.43443 14.2497 8.33987 14.1875 8.23598 14.1453C8.1321 14.1032 8.02092 14.0819 7.90881 14.0827C7.79669 14.0835 7.68583 14.1063 7.58255 14.15C7.47927 14.1936 7.3856 14.2571 7.30688 14.337L3.48302 18.1608C3.32341 18.3206 3.23376 18.5373 3.23376 18.7631C3.23376 18.989 3.32341 19.2056 3.48302 19.3654L7.30688 23.1893C7.46736 23.3505 7.68533 23.4414 7.91282 23.4419C8.14032 23.4424 8.35871 23.3526 8.51995 23.1921C8.68119 23.0316 8.77207 22.8136 8.7726 22.5861C8.77313 22.3587 8.68327 22.1403 8.52279 21.979L6.55688 20.0188H23.0342C23.2562 20.0129 23.4672 19.9205 23.6222 19.7613C23.7771 19.6021 23.8638 19.3887 23.8637 19.1665Z" fill="#DC0C1C"/>
<path d="M49.1477 16.6093H44.8864V9.50701C44.8864 9.28098 44.7966 9.0642 44.6367 8.90436C44.4769 8.74453 44.2601 8.65474 44.0341 8.65474H30.6818V1.55247C30.6818 1.32643 30.592 1.10965 30.4322 0.949821C30.2724 0.789989 30.0556 0.700195 29.8295 0.700195H0.852273C0.626236 0.700195 0.409457 0.789989 0.249625 0.949821C0.0897927 1.10965 0 1.32643 0 1.55247V28.257C0 28.483 0.0897927 28.6998 0.249625 28.8597C0.409457 29.0195 0.626236 29.1093 0.852273 29.1093H7.34091C7.45693 30.1743 7.96216 31.1589 8.75963 31.8742C9.55711 32.5895 10.5907 32.9851 11.6619 32.9851C12.7332 32.9851 13.7668 32.5895 14.5642 31.8742C15.3617 31.1589 15.8669 30.1743 15.983 29.1093H35.0455C35.1616 30.1757 35.6674 31.1617 36.466 31.878C37.2645 32.5943 38.2994 32.9905 39.3722 32.9905C40.4449 32.9905 41.4798 32.5943 42.2784 31.878C43.0769 31.1617 43.5828 30.1757 43.6989 29.1093H49.1477C49.3738 29.1093 49.5905 29.0195 49.7504 28.8597C49.9102 28.6998 50 28.483 50 28.257V17.4616C50 17.2355 49.9102 17.0187 49.7504 16.8589C49.5905 16.6991 49.3738 16.6093 49.1477 16.6093ZM11.6477 31.2911C11.1233 31.2934 10.6101 31.1398 10.1731 30.85C9.73602 30.5602 9.39489 30.1471 9.19292 29.6632C8.99094 29.1793 8.93721 28.6462 9.03855 28.1317C9.13989 27.6172 9.39173 27.1444 9.76213 26.7732C10.1325 26.402 10.6048 26.1491 11.1191 26.0467C11.6334 25.9442 12.1665 25.9968 12.6509 26.1978C13.1353 26.3987 13.5491 26.7389 13.8398 27.1753C14.1306 27.6117 14.2852 28.1247 14.2841 28.6491C14.2827 29.3444 14.0077 30.0113 13.5187 30.5057C13.0297 31 12.3658 31.2822 11.6705 31.2911H11.6477ZM11.6477 24.2968C10.7147 24.3026 9.80826 24.6077 9.06162 25.1671C8.31498 25.7266 7.7676 26.5109 7.5 27.4047H1.70455V2.40474H28.9773V27.4047H15.8295C15.5622 26.5086 15.0133 25.7224 14.2642 25.1627C13.5151 24.6029 12.6056 24.2993 11.6705 24.2968H11.6477ZM39.3693 31.2911C38.8454 31.2911 38.3333 31.1357 37.8977 30.8445C37.4622 30.5533 37.1228 30.1394 36.9226 29.6553C36.7224 29.1712 36.6703 28.6385 36.7729 28.1247C36.8755 27.611 37.1283 27.1392 37.4991 26.7691C37.87 26.3991 38.3423 26.1474 38.8563 26.0458C39.3702 25.9443 39.9028 25.9976 40.3865 26.1988C40.8702 26.4001 41.2833 26.7404 41.5736 27.1765C41.8638 27.6127 42.0182 28.1251 42.017 28.6491C42.0155 29.3503 41.7359 30.0223 41.2395 30.5176C40.7432 31.0129 40.0706 31.2911 39.3693 31.2911ZM48.2955 27.4047H43.5398C43.2674 26.5149 42.7166 25.7359 41.9684 25.1825C41.2202 24.629 40.3142 24.3303 39.3835 24.3303C38.4529 24.3303 37.5468 24.629 36.7986 25.1825C36.0505 25.7359 35.4997 26.5149 35.2273 27.4047H30.6818V10.3593H43.1818V17.4616C43.1818 17.6876 43.2716 17.9044 43.4314 18.0642C43.5913 18.224 43.8081 18.3138 44.0341 18.3138H48.2955V27.4047Z" fill="#DC0C1C"/>
</svg>
