<svg width="47" height="51" viewBox="0 0 47 51" fill="none" xmlns="http://www.w3.org/2000/svg">
<path d="M43.8829 3.15037C42.3598 1.61178 40.325 0.685806 38.1644 0.548163C36.0039 0.41052 33.868 1.07078 32.162 2.40367C30.4561 3.73655 29.2987 5.64931 28.9096 7.77899C28.5206 9.90866 28.9268 12.1071 30.0513 13.9571C30.0646 13.9959 30.0831 14.0328 30.1062 14.0668L35.8571 23.7148H29.5756C27.8773 23.7148 26.2485 24.3895 25.0476 25.5903C23.8467 26.7912 23.1721 28.42 23.1721 30.1183C23.1721 31.8166 23.8467 33.4454 25.0476 34.6463C26.2485 35.8472 27.8773 36.5218 29.5756 36.5218H30.8441C32.4616 36.5218 34.0128 37.1643 35.1565 38.3081C36.3002 39.4518 36.9427 41.003 36.9427 42.6204C36.9427 44.2379 36.3002 45.789 35.1565 46.9328C34.0128 48.0765 32.4616 48.719 30.8441 48.719H10.1394L16.3356 38.8027C16.3661 38.7539 16.3905 38.7051 16.4149 38.6563C17.2273 37.3158 17.6685 35.7832 17.6933 34.2159C17.718 32.6486 17.3255 31.1028 16.5558 29.7373C15.7861 28.3717 14.667 27.2355 13.3134 26.4451C11.9597 25.6547 10.4201 25.2386 8.85262 25.2394C7.28382 25.2356 5.7423 25.6497 4.38663 26.4392C3.03097 27.2287 1.9101 28.3651 1.13932 29.7315C0.368542 31.0979 -0.0243125 32.645 0.00116487 34.2136C0.0266423 35.7822 0.469532 37.3157 1.28428 38.6563L1.33916 38.7661L7.90124 49.7923C7.9283 49.8389 7.96108 49.882 7.99882 49.9204C8.06207 50.0993 8.17941 50.2542 8.33457 50.3634C8.48974 50.4727 8.67504 50.531 8.86482 50.5303H30.8441C32.9468 50.5303 34.9633 49.695 36.4502 48.2082C37.937 46.7213 38.7723 44.7048 38.7723 42.6021C38.7723 40.4994 37.937 38.4829 36.4502 36.9961C34.9633 35.5092 32.9468 34.674 30.8441 34.674H29.5756C28.3625 34.674 27.1991 34.1921 26.3413 33.3343C25.4836 32.4765 25.0017 31.3131 25.0017 30.1C25.0017 28.8869 25.4836 27.7235 26.3413 26.8657C27.1991 26.008 28.3625 25.5261 29.5756 25.5261H37.3574C37.4264 25.5324 37.4958 25.5324 37.5647 25.5261C37.7008 25.5103 37.8317 25.4643 37.9477 25.3915C38.0638 25.3187 38.1621 25.2209 38.2356 25.1053L45.1026 14.0912C45.1342 14.0464 45.1588 13.997 45.1758 13.9449C46.1941 12.2589 46.62 10.281 46.3857 8.32527C46.1515 6.36958 45.2706 4.5482 43.8829 3.15037ZM2.97358 37.9489C2.95538 37.8992 2.93078 37.852 2.9004 37.8086C2.23333 36.7488 1.86299 35.5294 1.82802 34.2777C1.79306 33.0259 2.09476 31.7877 2.70164 30.6923C3.30851 29.597 4.1983 28.6846 5.27812 28.0505C6.35794 27.4164 7.58818 27.0837 8.84042 27.0873C9.76063 27.0897 10.6714 27.2733 11.5206 27.6277C12.3698 27.9821 13.141 28.5002 13.79 29.1526C14.4389 29.805 14.9531 30.5788 15.303 31.4299C15.6529 32.281 15.8318 33.1927 15.8294 34.1129C15.8268 35.4279 15.4526 36.7154 14.7499 37.8269C14.7251 37.8725 14.7027 37.9193 14.6829 37.9672L8.70015 47.5664L2.97358 37.9489ZM44.6269 9.40752C44.6243 10.7225 44.2501 12.01 43.5475 13.1216C43.5226 13.1671 43.5002 13.2139 43.4804 13.2618L37.4794 22.861L31.7528 13.2435L31.6857 13.1033C31.0157 12.0437 30.6428 10.8236 30.6059 9.57051C30.5691 8.31745 30.8696 7.0775 31.4761 5.98039C32.0827 4.88328 32.9729 3.96933 34.0537 3.33414C35.1344 2.69895 36.366 2.36587 37.6196 2.36975C38.5424 2.36975 39.4561 2.552 40.3083 2.90605C41.1604 3.26011 41.9343 3.77899 42.5853 4.43291C43.2364 5.08682 43.7519 5.8629 44.1023 6.71659C44.4526 7.57027 44.6309 8.48475 44.6269 9.40752Z" fill="#DC0C1C"/>
<path d="M37.6256 5.10193C36.6259 5.14162 35.6804 5.56667 34.9871 6.28801C34.2939 7.00935 33.9067 7.97101 33.9067 8.97148C33.9067 9.97196 34.2939 10.9336 34.9871 11.6549C35.6804 12.3763 36.6259 12.8013 37.6256 12.841C38.6495 12.8394 39.6311 12.4324 40.3557 11.7089C41.0803 10.9855 41.4889 10.0045 41.4921 8.98063C41.4929 8.47207 41.3936 7.96833 41.1997 7.49818C41.0058 7.02803 40.7212 6.60067 40.3622 6.2405C40.0031 5.88033 39.5767 5.5944 39.1071 5.39905C38.6376 5.20369 38.1342 5.10273 37.6256 5.10193ZM39.6626 8.97453C39.6634 9.24276 39.611 9.5085 39.5086 9.7564C39.4061 10.0043 39.2556 10.2294 39.0656 10.4188C38.8756 10.6082 38.6501 10.7581 38.4019 10.8598C38.1537 10.9615 37.8878 11.0131 37.6195 11.0115C37.35 11.0121 37.0831 10.9584 36.8348 10.8536C36.5864 10.7489 36.3618 10.5951 36.1742 10.4016C35.8872 10.1167 35.6916 9.75285 35.6122 9.35639C35.5327 8.95993 35.5731 8.5488 35.7281 8.17535C35.8831 7.8019 36.1457 7.48303 36.4826 7.25935C36.8194 7.03567 37.2152 6.9173 37.6195 6.91931C37.8889 6.92004 38.1553 6.97434 38.4035 7.07904C38.6516 7.18374 38.8764 7.33675 39.0649 7.52916C39.2565 7.71822 39.409 7.94318 39.5136 8.19118C39.6183 8.43918 39.673 8.70536 39.6747 8.97453H39.6626Z" fill="#DC0C1C"/>
<path d="M8.84678 37.5526C9.87386 37.5526 10.8589 37.1446 11.5851 36.4183C12.3114 35.6921 12.7194 34.707 12.7194 33.68C12.7194 32.6529 12.3114 31.6679 11.5851 30.9416C10.8589 30.2154 9.87386 29.8074 8.84678 29.8074C7.8197 29.8074 6.83469 30.2154 6.10844 30.9416C5.38219 31.6679 4.97418 32.6529 4.97418 33.68C4.97418 34.707 5.38219 35.6921 6.10844 36.4183C6.83469 37.1446 7.8197 37.5526 8.84678 37.5526ZM6.80376 33.6739C6.80359 33.4053 6.8575 33.1395 6.96228 32.8922C7.06706 32.6449 7.22055 32.4213 7.41362 32.2346C7.60113 32.0427 7.82494 31.8899 8.07202 31.7852C8.3191 31.6805 8.58453 31.626 8.85288 31.6248C9.39423 31.628 9.9123 31.8453 10.294 32.2292C10.6756 32.6132 10.8898 33.1325 10.8898 33.6739C10.8882 34.2147 10.6722 34.7327 10.2893 35.1146C9.9063 35.4964 9.38757 35.7108 8.84678 35.7108C8.57761 35.7091 8.31143 35.6543 8.06343 35.5497C7.81543 35.445 7.59047 35.2925 7.40142 35.1009C7.02114 34.7231 6.80621 34.2099 6.80376 33.6739Z" fill="#DC0C1C"/>
</svg>
