<svg width="47" height="48" viewBox="0 0 47 48" fill="none" xmlns="http://www.w3.org/2000/svg">
<path d="M40.8311 8.16775H44.9436C45.1773 8.16775 45.4015 8.0749 45.5667 7.90964C45.732 7.74437 45.8248 7.52022 45.8248 7.2865C45.8248 7.05278 45.732 6.82863 45.5667 6.66336C45.4015 6.4981 45.1773 6.40525 44.9436 6.40525H39.0686C38.8349 6.40525 38.6108 6.4981 38.4455 6.66336C38.2802 6.82863 38.1874 7.05278 38.1874 7.2865V13.1615C38.1874 13.3952 38.2802 13.6193 38.4455 13.7846C38.6108 13.9499 38.8349 14.0427 39.0686 14.0427C39.3023 14.0427 39.5265 13.9499 39.6918 13.7846C39.857 13.6193 39.9499 13.3952 39.9499 13.1615V9.81862C43.3787 13.7571 45.258 18.8083 45.2374 24.0302C45.2374 28.3294 43.9625 32.5322 41.5739 36.1069C39.1854 39.6816 35.7905 42.4677 31.8185 44.113C27.8465 45.7582 23.4758 46.1887 19.2592 45.3499C15.0425 44.5112 11.1693 42.4409 8.12925 39.4009C5.08922 36.3608 3.01893 32.4876 2.18018 28.271C1.34144 24.0543 1.77191 19.6836 3.41717 15.7116C5.06242 11.7396 7.84856 8.34472 11.4233 5.95618C14.998 3.56764 19.2007 2.29277 23.4999 2.29277C23.7337 2.29277 23.9578 2.19992 24.1231 2.03466C24.2883 1.86939 24.3812 1.64524 24.3812 1.41152C24.3812 1.1778 24.2883 0.95365 24.1231 0.788385C23.9578 0.623119 23.7337 0.530273 23.4999 0.530273C18.8521 0.530273 14.3086 1.90852 10.4441 4.49072C6.57953 7.07293 3.56749 10.7431 1.78884 15.0372C0.0101821 19.3312 -0.455195 24.0563 0.451555 28.6148C1.3583 33.1733 3.59645 37.3606 6.88298 40.6471C10.1695 43.9337 14.3568 46.1718 18.9153 47.0786C23.4739 47.9853 28.1989 47.5199 32.493 45.7413C36.787 43.9626 40.4572 40.9506 43.0394 37.086C45.6216 33.2215 46.9998 28.678 46.9998 24.0302C47.0215 18.1533 44.8175 12.486 40.8311 8.16775Z" fill="#DC0C1C"/>
<path d="M7.63751 24.3239C7.63751 27.5193 8.58506 30.6429 10.3603 33.2998C12.1356 35.9567 14.6588 38.0275 17.611 39.2503C20.5632 40.4731 23.8116 40.7931 26.9456 40.1697C30.0796 39.5463 32.9584 38.0076 35.2179 35.7481C37.4773 33.4886 39.0161 30.6098 39.6395 27.4758C40.2629 24.3418 39.9429 21.0934 38.7201 18.1412C37.4973 15.1891 35.4265 12.6658 32.7696 10.8905C30.1127 9.11527 26.9891 8.16772 23.7937 8.16772C19.5102 8.17239 15.4036 9.87605 12.3747 12.9049C9.34584 15.9338 7.64218 20.0405 7.63751 24.3239ZM38.1874 24.3239C38.1874 27.1707 37.3432 29.9536 35.7616 32.3206C34.18 34.6877 31.932 36.5325 29.3019 37.622C26.6718 38.7114 23.7777 38.9964 20.9856 38.441C18.1935 37.8857 15.6288 36.5148 13.6158 34.5018C11.6028 32.4888 10.232 29.9241 9.67658 27.132C9.12119 24.3399 9.40624 21.4458 10.4957 18.8157C11.5851 16.1856 13.43 13.9376 15.797 12.356C18.164 10.7744 20.9469 9.93022 23.7937 9.93022C27.6097 9.93488 31.2681 11.4529 33.9664 14.1512C36.6648 16.8495 38.1827 20.5079 38.1874 24.3239Z" fill="#DC0C1C"/>
<path d="M22.9125 14.3366V24.324C22.9126 24.4982 22.9644 24.6684 23.0612 24.8132C23.1581 24.958 23.2957 25.0708 23.4566 25.1375C23.6175 25.2041 23.7946 25.2216 23.9654 25.1876C24.1363 25.1537 24.2932 25.0699 24.4165 24.9468L32.0539 17.3093C32.2096 17.1423 32.2943 16.9213 32.2903 16.693C32.2863 16.4647 32.1938 16.2469 32.0324 16.0854C31.8709 15.9239 31.6531 15.8315 31.4248 15.8274C31.1965 15.8234 30.9755 15.9081 30.8084 16.0638L24.675 22.1973V14.3366C24.675 14.1028 24.5821 13.8787 24.4169 13.7134C24.2516 13.5482 24.0274 13.4553 23.7937 13.4553C23.56 13.4553 23.3359 13.5482 23.1706 13.7134C23.0053 13.8787 22.9125 14.1028 22.9125 14.3366Z" fill="#DC0C1C"/>
</svg>
