<svg width="55" height="46" viewBox="0 0 55 46" fill="none" xmlns="http://www.w3.org/2000/svg">
<path d="M53.1689 39.0206H44.3618V1.50884C44.3618 1.24931 44.2587 1.00041 44.0751 0.81689C43.8916 0.633373 43.6427 0.530273 43.3832 0.530273C43.1236 0.530273 42.8747 0.633373 42.6912 0.81689C42.5077 1.00041 42.4046 1.24931 42.4046 1.50884V33.8016H39.1427V30.6767C39.141 28.9107 38.4387 27.2175 37.1899 25.9687C35.9412 24.7199 34.248 24.0176 32.4819 24.0159H32.2797L21.3197 5.38397C20.4479 3.90934 19.2079 2.68661 17.7211 1.83571C16.2343 0.984811 14.5519 0.53496 12.8388 0.530273H4.89284C4.63331 0.530273 4.3844 0.633373 4.20089 0.81689C4.01737 1.00041 3.91427 1.24931 3.91427 1.50884V24.0159H0.978568C0.719036 24.0159 0.470133 24.119 0.286616 24.3025C0.103099 24.486 0 24.7349 0 24.9945V39.9992C0 40.2587 0.103099 40.5076 0.286616 40.6911C0.470133 40.8747 0.719036 40.9778 0.978568 40.9778H4.7167C5.01499 42.2718 5.74314 43.4264 6.78226 44.2533C7.82139 45.0801 9.11011 45.5303 10.4381 45.5303C11.766 45.5303 13.0547 45.0801 14.0939 44.2533C15.133 43.4264 15.8611 42.2718 16.1594 40.9778H22.9833C23.2816 42.2718 24.0097 43.4264 25.0489 44.2533C26.088 45.0801 27.3767 45.5303 28.7047 45.5303C30.0326 45.5303 31.3213 45.0801 32.3605 44.2533C33.3996 43.4264 34.1277 42.2718 34.426 40.9778H38.1642C38.4237 40.9778 38.6726 40.8747 38.8561 40.6911C39.0396 40.5076 39.1427 40.2587 39.1427 39.9992V35.7587H42.4046V39.9992C42.4046 40.2587 42.5077 40.5076 42.6912 40.6911C42.8747 40.8747 43.1236 40.9778 43.3832 40.9778H53.1689C53.4284 40.9778 53.6773 40.8747 53.8608 40.6911C54.0443 40.5076 54.1474 40.2587 54.1474 39.9992C54.1474 39.7397 54.0443 39.4907 53.8608 39.3072C53.6773 39.1237 53.4284 39.0206 53.1689 39.0206ZM5.87141 2.48741H12.8323C14.2084 2.4942 15.5592 2.85858 16.752 3.54479C17.9449 4.231 18.9389 5.21548 19.6366 6.40168L30.0094 24.0159H5.87141V2.48741ZM10.4381 43.5873C9.66389 43.5873 8.9071 43.3577 8.26341 42.9276C7.61971 42.4975 7.118 41.8862 6.82174 41.1709C6.52548 40.4557 6.44797 39.6687 6.599 38.9094C6.75003 38.1501 7.12283 37.4526 7.67025 36.9052C8.21767 36.3578 8.91513 35.985 9.67442 35.8339C10.4337 35.6829 11.2207 35.7604 11.936 36.0567C12.6512 36.3529 13.2626 36.8546 13.6927 37.4983C14.1228 38.142 14.3523 38.8988 14.3523 39.673C14.3523 40.7111 13.9399 41.7067 13.2059 42.4408C12.4718 43.1749 11.4762 43.5873 10.4381 43.5873ZM28.7047 43.5873C27.9305 43.5873 27.1737 43.3577 26.53 42.9276C25.8863 42.4975 25.3846 41.8862 25.0883 41.1709C24.7921 40.4557 24.7146 39.6687 24.8656 38.9094C25.0166 38.1501 25.3894 37.4526 25.9369 36.9052C26.4843 36.3578 27.1817 35.985 27.941 35.8339C28.7003 35.6829 29.4873 35.7604 30.2026 36.0567C30.9178 36.3529 31.5292 36.8546 31.9593 37.4983C32.3894 38.142 32.6189 38.8988 32.6189 39.673C32.6189 40.7111 32.2065 41.7067 31.4725 42.4408C30.7384 43.1749 29.7428 43.5873 28.7047 43.5873ZM37.1856 39.0206H34.5369C34.3709 37.5902 33.6851 36.2707 32.6098 35.313C31.5344 34.3552 30.1447 33.826 28.7047 33.826C27.2647 33.826 25.8749 34.3552 24.7996 35.313C23.7243 36.2707 23.0384 37.5902 22.8724 39.0206H16.2703C16.1043 37.5902 15.4185 36.2707 14.3431 35.313C13.2678 34.3552 11.878 33.826 10.4381 33.826C8.99807 33.826 7.60829 34.3552 6.53297 35.313C5.45765 36.2707 4.77179 37.5902 4.60579 39.0206H1.95714V25.973H32.4819C33.7284 25.9765 34.9228 26.4732 35.8041 27.3545C36.6855 28.2359 37.1821 29.4303 37.1856 30.6767V39.0206Z" fill="#DC0C1C"/>
</svg>
