<svg width="50" height="52" viewBox="0 0 50 52" fill="none" xmlns="http://www.w3.org/2000/svg">
<path d="M49.4478 31.0271L44.2176 28.7026V15.7723C44.2633 15.5599 44.2281 15.3382 44.1188 15.1505V15.1098L44.0723 15.0575C44.0124 14.9713 43.9376 14.8966 43.8515 14.8367L32.5658 7.37487L32.4903 7.32256L22.5296 0.674361C22.3852 0.580331 22.2166 0.530273 22.0443 0.530273C21.872 0.530273 21.7035 0.580331 21.5591 0.674361L0.521945 14.7146C0.367979 14.7827 0.236852 14.8937 0.144206 15.0342C0.0792387 15.1314 0.0348877 15.2408 0.0138966 15.3557C-0.00709446 15.4707 -0.00427938 15.5887 0.0221677 15.7026V35.3101C0.021068 35.4541 0.056141 35.5961 0.12417 35.723C0.192199 35.8499 0.291006 35.9577 0.411529 36.0365L21.7509 50.2453C21.8946 50.3386 22.0619 50.389 22.2332 50.3906C22.4062 50.3882 22.5752 50.3379 22.7214 50.2453L31.9847 44.0736C32.2653 45.1913 32.7946 46.2311 33.5332 47.1156C34.2718 48.0001 35.2005 48.7064 36.2502 49.1818L40.3182 51.0182C40.4297 51.0718 40.5518 51.0996 40.6756 51.0996C40.7993 51.0996 40.9215 51.0718 41.033 51.0182L45.1009 49.1818C46.3508 48.6146 47.4255 47.7221 48.2126 46.5976C48.9997 45.4731 49.4705 44.1579 49.5757 42.7893L49.9999 31.8581C50.0024 31.6801 49.951 31.5055 49.8524 31.3572C49.7539 31.2089 49.6129 31.0939 49.4478 31.0271ZM31.8917 31.0271C31.7321 31.0984 31.5972 31.2153 31.5041 31.3633C31.411 31.5112 31.3639 31.6834 31.3687 31.8581L31.7348 42.1385L22.9771 47.9498V30.2426L42.4451 17.26V27.9703L41.0039 27.3369C40.8931 27.2881 40.7734 27.2629 40.6523 27.2629C40.5313 27.2629 40.4115 27.2881 40.3007 27.3369L31.8917 31.0271ZM41.771 15.6096L22.21 28.6619L12.5863 22.2694L32.0544 9.14152L41.771 15.6096ZM22.0124 2.44683L30.4563 8.07804L11.0173 21.2059L2.45132 15.5108L22.0124 2.44683ZM1.76558 17.1438L21.2337 30.1031V47.8045L1.76558 34.8452V17.1438ZM47.8439 42.6731C47.7591 43.7306 47.3903 44.7455 46.7766 45.6109C46.1629 46.4762 45.327 47.1598 44.3571 47.5895L40.7017 49.269L36.9825 47.5895C36.0233 47.1595 35.1968 46.4806 34.5887 45.6232C33.9807 44.7657 33.6133 43.7612 33.5247 42.7138L33.147 32.387L40.7017 29.0861L48.2565 32.387L47.8439 42.6731Z" fill="#DC0C1C"/>
</svg>
