<svg width="40" height="48" viewBox="0 0 40 48" fill="none" xmlns="http://www.w3.org/2000/svg">
<path d="M20.331 27.8776C15.4165 27.8868 10.7062 29.8444 7.23271 33.3211C3.75925 36.7978 1.80612 41.51 1.80151 46.4245C1.80151 46.6557 1.89337 46.8775 2.05687 47.041C2.22037 47.2045 2.44213 47.2963 2.67335 47.2963H38.0119C38.2431 47.2963 38.4649 47.2045 38.6284 47.041C38.7919 46.8775 38.8838 46.6557 38.8838 46.4245C38.8791 41.506 36.9228 36.7903 33.4443 33.3129C29.9659 29.8355 25.2496 27.8806 20.331 27.8776ZM3.54519 45.5527C3.75734 41.246 5.61752 37.1858 8.74058 34.2128C11.8637 31.2398 16.0104 29.5817 20.3223 29.5817C24.6342 29.5817 28.7809 31.2398 31.904 34.2128C35.0271 37.1858 36.8872 41.246 37.0994 45.5527H3.54519Z" fill="#DC0C1C"/>
<path d="M20.0237 4.67505C17.9034 4.6739 15.8304 5.30166 14.067 6.47891C12.3036 7.65615 10.9289 9.32999 10.117 11.2886C9.30508 13.2473 9.09235 15.4028 9.50571 17.4824C9.91907 19.562 10.94 21.4722 12.4392 22.9715C13.9385 24.4708 15.8488 25.4917 17.9284 25.905C20.0079 26.3184 22.1634 26.1056 24.1221 25.2937C26.0807 24.4818 27.7546 23.1072 28.9318 21.3437C30.1091 19.5803 30.7368 17.5073 30.7357 15.3871C30.7326 12.547 29.603 9.82415 27.5948 7.81592C25.5866 5.8077 22.8637 4.67813 20.0237 4.67505ZM20.0237 24.3612C18.2485 24.3623 16.5129 23.837 15.0363 22.8516C13.5598 21.8662 12.4086 20.465 11.7285 18.8253C11.0484 17.1856 10.8698 15.381 11.2155 13.6399C11.5611 11.8987 12.4153 10.2991 13.6701 9.04344C14.925 7.7878 16.524 6.93252 18.265 6.58578C20.0059 6.23904 21.8106 6.41642 23.4508 7.09548C25.0909 7.77454 26.4928 8.92477 27.4792 10.4007C28.4655 11.8766 28.992 13.6119 28.992 15.3871C28.9905 17.7657 28.0453 20.0465 26.3639 21.729C24.6825 23.4114 22.4023 24.3581 20.0237 24.3612Z" fill="#DC0C1C"/>
<path d="M6.84685 21.1411C7.07807 21.1411 7.29983 21.0492 7.46333 20.8857C7.62683 20.7222 7.71869 20.5005 7.71869 20.2693V10.679C7.74811 10.6391 7.77342 10.5962 7.79425 10.5512C8.75898 8.10621 10.4347 6.00673 12.6049 4.52395C14.7751 3.04117 17.3401 2.24323 19.9685 2.23322C22.5969 2.2232 25.1679 3.00158 27.3493 4.46778C29.5308 5.93398 31.2224 8.02064 32.2058 10.4582V20.2809C31.561 21.9054 30.5965 23.3839 29.3694 24.6285C29.2061 24.7919 29.1144 25.0135 29.1144 25.2446C29.1144 25.4756 29.2061 25.6972 29.3694 25.8607C29.5243 26.0148 29.7321 26.1041 29.9506 26.1106C30.066 26.1109 30.1803 26.0885 30.287 26.0446C30.3937 26.0008 30.4907 25.9363 30.5725 25.8548C31.932 24.5044 33.0175 22.9037 33.7693 21.1411H34.1877C35.7292 21.1411 37.2076 20.5287 38.2976 19.4387C39.3876 18.3487 40 16.8703 40 15.3288C40 13.7873 39.3876 12.309 38.2976 11.2189C37.2076 10.1289 35.7292 9.51657 34.1877 9.51657H33.7111C32.561 6.84829 30.6546 4.5753 28.2272 2.97831C25.7999 1.38132 22.9579 0.530273 20.0523 0.530273C17.1467 0.530273 14.3048 1.38132 11.8774 2.97831C9.45003 4.5753 7.54359 6.84829 6.39349 9.51657H5.81226C4.27076 9.51657 2.79238 10.1289 1.70237 11.2189C0.612361 12.309 0 13.7873 0 15.3288C0 16.8703 0.612361 18.3487 1.70237 19.4387C2.79238 20.5287 4.27076 21.1411 5.81226 21.1411H6.84685ZM33.9552 11.2603H34.1645C35.2435 11.2603 36.2784 11.6889 37.0414 12.4519C37.8044 13.2149 38.2331 14.2498 38.2331 15.3288C38.2331 16.4079 37.8044 17.4428 37.0414 18.2058C36.2784 18.9688 35.2435 19.3974 34.1645 19.3974H33.9552V11.2603ZM1.69718 15.3288C1.69718 14.2498 2.12583 13.2149 2.88884 12.4519C3.65185 11.6889 4.68671 11.2603 5.76577 11.2603H5.97501V19.3974H5.76577C4.68671 19.3974 3.65185 18.9688 2.88884 18.2058C2.12583 17.4428 1.69718 16.4079 1.69718 15.3288Z" fill="#DC0C1C"/>
</svg>
