<svg width="50" height="50" viewBox="0 0 50 50" fill="none" xmlns="http://www.w3.org/2000/svg">
<path d="M25 50C38.8071 50 50 38.8071 50 25C50 11.1929 38.8071 0 25 0C11.1929 0 0 11.1929 0 25C0 38.8071 11.1929 50 25 50Z" fill="#338AF3"/>
<path d="M39.1304 25.2717H10.8695C10.8695 27.2228 12.5688 28.8043 14.5197 28.8043H14.4021C14.4021 30.7554 15.9837 32.337 17.9347 32.337C17.9347 34.288 19.5163 35.8696 21.4674 35.8696H28.5326C30.4837 35.8696 32.0652 34.288 32.0652 32.337C34.0163 32.337 35.5978 30.7554 35.5978 28.8043H35.4802C37.4309 28.8043 39.1304 27.2228 39.1304 25.2717Z" fill="#FFDA44"/>
<path d="M34.7826 20.6521C34.7826 26.0548 30.4028 30.4347 25 30.4347C19.5972 30.4347 15.2174 26.0548 15.2174 20.6521" fill="#338AF3"/>
<path d="M32.4722 20.6521L29.4189 22.0883L31.0448 25.0453L27.7294 24.411L27.3093 27.7603L25 25.2969L22.6906 27.7603L22.2706 24.411L18.9552 25.0451L20.581 22.0882L17.5278 20.6521L20.5811 19.2159L18.9552 16.259L22.2705 16.8932L22.6907 13.5439L25 16.0073L27.3094 13.5439L27.7294 16.8932L31.0449 16.259L29.419 19.216L32.4722 20.6521Z" fill="#FFDA44"/>
</svg>
