<svg width="50" height="50" viewBox="0 0 50 50" fill="none" xmlns="http://www.w3.org/2000/svg">
<path d="M24.9998 0C23.1332 0 21.3149 0.206348 19.5651 0.594238L18.4782 24.9999L19.5651 49.4057C21.315 49.7936 23.1333 50 24.9998 50C38.8069 50 49.9998 38.807 49.9998 24.9999C49.9997 11.1929 38.8069 0 24.9998 0Z" fill="#496E2D"/>
<path d="M6.52168 8.16113C2.47051 12.6041 0 18.5133 0 24.9998C0 31.4863 2.47061 37.3955 6.52178 41.8387L7.60869 24.9998L6.52168 8.16113Z" fill="#496E2D"/>
<path d="M36.5644 18.8572C37.7943 15.4289 36.4125 11.7003 33.447 9.84326C33.9804 9.9127 34.5144 10.0383 35.0413 10.2272C38.9967 11.6464 41.0527 16.003 39.6336 19.9583C38.2145 23.9139 33.8578 25.9697 29.9025 24.5506C29.3754 24.3615 28.8833 24.1188 28.4276 23.8334C31.8973 24.2853 35.3344 22.2855 36.5644 18.8572Z" fill="#F0F0F0"/>
<path d="M29.7424 8.90356L28.6736 10.2846L27.0301 9.69487L28.0131 11.138L26.9445 12.5189L28.6207 12.03L29.6039 13.473L29.6567 11.7277L31.333 11.2387L29.6896 10.6492L29.7424 8.90356Z" fill="#F0F0F0"/>
<path d="M32.6284 13.4036L31.5595 14.7845L29.916 14.1948L30.8991 15.6379L29.8303 17.0188L31.5066 16.5297L32.4898 17.973L32.5427 16.2276L34.219 15.7385L32.5754 15.1489L32.6284 13.4036Z" fill="#F0F0F0"/>
<path d="M24.6542 10.5425L23.5853 11.9233L21.9418 11.3338L22.925 12.7769L21.8562 14.1578L23.5324 13.6688L24.5156 15.1119L24.5685 13.3666L26.2448 12.8776L24.6013 12.2879L24.6542 10.5425Z" fill="#F0F0F0"/>
<path d="M24.5369 15.697L23.4682 17.078L21.8246 16.4883L22.8078 17.9315L21.7389 19.3124L23.4154 18.8235L24.3985 20.2665L24.4513 18.5211L26.1277 18.0322L24.484 17.4424L24.5369 15.697Z" fill="#F0F0F0"/>
<path d="M29.4418 17.4568L28.373 18.8376L26.7295 18.248L27.7127 19.6912L26.6438 21.0719L28.3203 20.5831L29.3034 22.0262L29.3562 20.2807L31.0326 19.7918L29.3889 19.2022L29.4418 17.4568Z" fill="#F0F0F0"/>
<path d="M6.52173 8.16123V41.8387C9.92798 45.5744 14.4524 48.2722 19.5652 49.4056V0.594238C14.4523 1.72764 9.92808 4.42539 6.52173 8.16123Z" fill="#D80027"/>
<path d="M11.4992 13.1625L9.31555 11.5358V9.2353L11.4992 7.60864H14.5876L16.7713 9.2353V11.5358L14.5876 13.1625H11.4992Z" fill="#F0F0F0"/>
<path d="M13.0435 7.60864H11.4992L9.31555 9.2353V10.36H13.0435V7.60864Z" fill="#FF9811"/>
<path d="M13.0435 13.1626H14.5876L16.7713 11.5358V10.3623H13.0435V13.1626Z" fill="#FF9811"/>
<path d="M11.4992 42.3911L9.31555 40.7643V38.4639L11.4992 36.8372H14.5876L16.7713 38.4639V40.7643L14.5876 42.3911H11.4992Z" fill="#F0F0F0"/>
<path d="M13.0435 36.8372H11.4992L9.31555 38.4639V39.5886H13.0435V36.8372Z" fill="#FF9811"/>
<path d="M13.0435 42.391H14.5876L16.7713 40.7643V39.5908H13.0435V42.391Z" fill="#FF9811"/>
<path d="M11.4992 27.7768L9.31549 26.15V23.8497L11.4992 22.2229H14.5876L16.7713 23.8497V26.15L14.5876 27.7768H11.4992Z" fill="#496E2D"/>
<path d="M16.8477 31.3561H15.8966V30.405H14.2252L13.0433 29.2231L11.8616 30.405H10.1902V31.3561H9.23914V33.2582H10.1902V34.2093H11.8615L13.0434 35.3912L14.2252 34.2093H15.8966V33.2582H16.8477V31.3561Z" fill="#496E2D"/>
<path d="M16.8477 16.7417H15.8966V15.7905H14.2252L13.0433 14.6086L11.8616 15.7905H10.1902V16.7417H9.23914V18.6438H10.1902V19.5949H11.8615L13.0434 20.7769L14.2252 19.5949H15.8966V18.6438H16.8477V16.7417Z" fill="#496E2D"/>
<path d="M14.1303 23.9131H11.9564V26.087H14.1303V23.9131Z" fill="#D80027"/>
<path d="M13.0433 18.7793C13.6436 18.7793 14.1302 18.2927 14.1302 17.6924C14.1302 17.0921 13.6436 16.6055 13.0433 16.6055C12.443 16.6055 11.9564 17.0921 11.9564 17.6924C11.9564 18.2927 12.443 18.7793 13.0433 18.7793Z" fill="#D80027"/>
<path d="M13.0433 33.3945C13.6436 33.3945 14.1302 32.9079 14.1302 32.3076C14.1302 31.7073 13.6436 31.2207 13.0433 31.2207C12.443 31.2207 11.9564 31.7073 11.9564 32.3076C11.9564 32.9079 12.443 33.3945 13.0433 33.3945Z" fill="#D80027"/>
</svg>
