<svg width="50" height="50" viewBox="0 0 50 50" fill="none" xmlns="http://www.w3.org/2000/svg">
<path d="M2.48066 14.1305C0.891406 17.4172 0 21.1045 0 25C0 28.8955 0.891406 32.5828 2.48066 35.8695L25 38.0435L47.5193 35.8695C49.1086 32.5828 50 28.8955 50 25C50 21.1045 49.1086 17.4172 47.5193 14.1305L25 11.9565L2.48066 14.1305Z" fill="#F0F0F0"/>
<path d="M2.48157 35.8696C6.52522 44.2319 15.0886 50.0001 25 50.0001C34.9114 50.0001 43.4749 44.2319 47.5185 35.8696H2.48157Z" fill="#6DA544"/>
<path d="M2.48157 14.1305H47.5185C43.4749 5.76816 34.9114 0 25 0C15.0886 0 6.52522 5.76816 2.48157 14.1305Z" fill="#D80027"/>
<path d="M20.6521 31.5218H29.3478V27.8261L27.6086 28.6956L25 26.0869L22.3913 28.6956L20.6521 27.8261V31.5218Z" fill="#FFDA44"/>
<path d="M15.677 27.1738L16.0818 28.4193H17.3914L16.3318 29.1892L16.7366 30.4347L15.677 29.6649L14.6174 30.4347L15.0222 29.1892L13.9626 28.4193H15.2722L15.677 27.1738Z" fill="#FFDA44"/>
<path d="M16.9318 22.8259L17.3365 24.0714H18.6461L17.5865 24.8413L17.9912 26.0868L16.9318 25.317L15.8722 26.0868L16.277 24.8413L15.2174 24.0714H16.527L16.9318 22.8259Z" fill="#FFDA44"/>
<path d="M20.5188 19.5652L20.9236 20.8107H22.2331L21.1737 21.5805L21.5783 22.826L20.5188 22.0563L19.4593 22.826L19.864 21.5805L18.8044 20.8107H20.1141L20.5188 19.5652Z" fill="#FFDA44"/>
<path d="M34.323 27.1738L33.9182 28.4193H32.6086L33.6682 29.1892L33.2634 30.4347L34.323 29.6649L35.3825 30.4347L34.9778 29.1892L36.0374 28.4193H34.7278L34.323 27.1738Z" fill="#FFDA44"/>
<path d="M33.0682 22.8259L32.6635 24.0714H31.3539L32.4135 24.8413L32.0087 26.0868L33.0682 25.317L34.1278 26.0868L33.723 24.8413L34.7826 24.0714H33.473L33.0682 22.8259Z" fill="#FFDA44"/>
<path d="M29.4811 19.5652L29.0763 20.8107H27.7668L28.8262 21.5805L28.4215 22.826L29.4811 22.0563L30.5406 22.826L30.1359 21.5805L31.1954 20.8107H29.8858L29.4811 19.5652Z" fill="#FFDA44"/>
<path d="M25 17.9346L25.4048 19.1801H26.7144L25.6548 19.9499L26.0596 21.1954L25 20.4257L23.9404 21.1954L24.3452 19.9499L23.2856 19.1801H24.5952L25 17.9346Z" fill="#FFDA44"/>
</svg>
