<svg width="50" height="50" viewBox="0 0 50 50" fill="none" xmlns="http://www.w3.org/2000/svg">
<path d="M1.18047 17.3915C0.41465 19.7907 -9.76394e-05 22.3467 1.72417e-08 24.9999C-9.76394e-05 27.6532 0.414748 30.2094 1.18057 32.6086L25.0001 33.6957L48.8196 32.6088C49.5854 30.2095 50.0003 27.6532 50.0003 25.0001C50.0002 22.3468 49.5854 19.7907 48.8196 17.3914L25.0001 16.3044L1.18047 17.3915Z" fill="#F0F0F0"/>
<path d="M48.8195 17.3914L25 16.3044L1.18037 17.3914C0.953419 18.1027 0.758008 18.828 0.594238 19.5653H49.4054C49.2418 18.8279 49.0465 18.1025 48.8195 17.3914Z" fill="#D80027"/>
<path d="M0.594543 30.4346C0.758118 31.1719 0.953529 31.8971 1.18048 32.6084L1.18283 32.6085L24.9999 33.6954L48.8194 32.6085C49.0464 31.8972 49.2418 31.1719 49.4055 30.4346H0.594543Z" fill="#D80027"/>
<path d="M25 50C36.1539 50 45.6002 42.695 48.8195 32.6086H1.18054C4.39979 42.6949 13.8463 50 25 50Z" fill="#6DA544"/>
<path d="M25 9.79113e-10C13.8463 9.76576e-05 4.39993 7.30511 1.18048 17.3914L48.8194 17.3915C45.6004 7.30501 36.154 -9.76557e-05 25 9.79113e-10Z" fill="#338AF3"/>
<path d="M11.4245 10.326C11.4245 7.98453 13.0701 6.02847 15.2677 5.54858C14.93 5.47476 14.5795 5.43481 14.2195 5.43481C11.5181 5.43481 9.32819 7.62467 9.32819 10.3261C9.32819 13.0276 11.5179 15.2175 14.2195 15.2175C14.5795 15.2175 14.9299 15.1774 15.2677 15.1037C13.0702 14.6236 11.4245 12.6676 11.4245 10.326Z" fill="#F0F0F0"/>
<path d="M18.1587 12.5493L18.4898 13.5684H19.5613L18.6945 14.1982L19.0255 15.2173L18.1587 14.5875L17.2917 15.2173L17.6229 14.1982L16.756 13.5684H17.8275L18.1587 12.5493Z" fill="#F0F0F0"/>
<path d="M21.5786 12.5493L21.9098 13.5684H22.9813L22.1144 14.1982L22.4455 15.2173L21.5786 14.5875L20.7117 15.2173L21.0429 14.1982L20.1761 13.5684H21.2475L21.5786 12.5493Z" fill="#F0F0F0"/>
<path d="M24.9987 12.5493L25.3297 13.5684H26.4013L25.5344 14.1982L25.8655 15.2173L24.9987 14.5875L24.1317 15.2173L24.4629 14.1982L23.5959 13.5684H24.6675L24.9987 12.5493Z" fill="#F0F0F0"/>
<path d="M28.4187 12.5493L28.7498 13.5684H29.8212L28.9544 14.1982L29.2856 15.2173L28.4187 14.5875L27.5517 15.2173L27.8829 14.1982L27.0159 13.5684H28.0874L28.4187 12.5493Z" fill="#F0F0F0"/>
<path d="M31.8386 12.5493L32.1698 13.5684H33.2413L32.3745 14.1982L32.7056 15.2173L31.8386 14.5875L30.9717 15.2173L31.3029 14.1982L30.4361 13.5684H31.5075L31.8386 12.5493Z" fill="#F0F0F0"/>
<path d="M21.5786 8.99194L21.9098 10.0109H22.9813L22.1144 10.6409L22.4455 11.6598L21.5786 11.03L20.7117 11.6598L21.0429 10.6409L20.1761 10.0109H21.2475L21.5786 8.99194Z" fill="#F0F0F0"/>
<path d="M24.9987 8.99194L25.3297 10.0109H26.4013L25.5344 10.6409L25.8655 11.6598L24.9987 11.03L24.1317 11.6598L24.4629 10.6409L23.5959 10.0109H24.6675L24.9987 8.99194Z" fill="#F0F0F0"/>
<path d="M28.4187 8.99194L28.7498 10.0109H29.8212L28.9544 10.6409L29.2856 11.6598L28.4187 11.03L27.5517 11.6598L27.8829 10.6409L27.0159 10.0109H28.0874L28.4187 8.99194Z" fill="#F0F0F0"/>
<path d="M31.8386 8.99194L32.1698 10.0109H33.2413L32.3745 10.6409L32.7056 11.6598L31.8386 11.03L30.9717 11.6598L31.3029 10.6409L30.4361 10.0109H31.5075L31.8386 8.99194Z" fill="#F0F0F0"/>
<path d="M24.9987 5.43457L25.3297 6.45371H26.4013L25.5344 7.0835L25.8655 8.10265L24.9987 7.47286L24.1317 8.10265L24.4629 7.0835L23.5959 6.45371H24.6675L24.9987 5.43457Z" fill="#F0F0F0"/>
<path d="M28.4187 5.43457L28.7498 6.45371H29.8212L28.9544 7.0835L29.2856 8.10265L28.4187 7.47286L27.5517 8.10265L27.8829 7.0835L27.0159 6.45371H28.0874L28.4187 5.43457Z" fill="#F0F0F0"/>
<path d="M31.8386 5.43457L32.1698 6.45371H33.2413L32.3745 7.0835L32.7056 8.10265L31.8386 7.47286L30.9717 8.10265L31.3029 7.0835L30.4361 6.45371H31.5075L31.8386 5.43457Z" fill="#F0F0F0"/>
</svg>
