<svg width="50" height="50" viewBox="0 0 50 50" fill="none" xmlns="http://www.w3.org/2000/svg">
<path d="M25 50C28.058 50 30.9874 49.45 33.6956 48.445L34.7826 25L33.6957 1.55498C30.9874 0.550098 28.058 0 25 0C21.942 0 19.0126 0.550098 16.3044 1.55498L15.2174 25L16.3043 48.445C19.0126 49.45 21.942 50 25 50Z" fill="#0052B4"/>
<path d="M0 25C0 35.7491 6.78437 44.9126 16.3044 48.445V1.55493C6.78437 5.08726 0 14.2508 0 25Z" fill="#A2001D"/>
<path d="M33.6956 1.55493V48.4451C43.2156 44.9126 50 35.7491 50 25C50 14.2508 43.2156 5.08726 33.6956 1.55493Z" fill="#A2001D"/>
<path d="M14.1306 25H11.9567V33.6956H14.1306V25Z" fill="#FFDA44"/>
<path d="M5.43491 25H3.26099V33.6956H5.43491V25Z" fill="#FFDA44"/>
<path d="M8.69578 30.4348C9.8964 30.4348 10.8697 29.4615 10.8697 28.2608C10.8697 27.0602 9.8964 26.0869 8.69578 26.0869C7.49515 26.0869 6.52185 27.0602 6.52185 28.2608C6.52185 29.4615 7.49515 30.4348 8.69578 30.4348Z" fill="#FFDA44"/>
<path d="M8.6958 21.739C9.29609 21.739 9.78271 21.2524 9.78271 20.6521C9.78271 20.0518 9.29609 19.5652 8.6958 19.5652C8.09551 19.5652 7.60889 20.0518 7.60889 20.6521C7.60889 21.2524 8.09551 21.739 8.6958 21.739Z" fill="#FFDA44"/>
<path d="M10.8698 31.5217H6.52197V33.6957H10.8698V31.5217Z" fill="#FFDA44"/>
<path d="M10.8698 22.8262H6.52197V25.0001H10.8698V22.8262Z" fill="#FFDA44"/>
<path d="M8.69578 13.0435L9.4657 15.4126H11.9567L9.94158 16.8769L10.7109 19.246L8.69578 17.7817L6.68074 19.246L7.45007 16.8769L5.43494 15.4126H7.92595L8.69578 13.0435Z" fill="#FFDA44"/>
</svg>
