<svg width="50" height="50" viewBox="0 0 50 50" fill="none" xmlns="http://www.w3.org/2000/svg">
<path d="M50 24.9999C50 21.9419 49.45 19.0125 48.445 16.3043L25 15.2173L1.55498 16.3042C0.550098 19.0125 0 21.9419 0 24.9999C0 28.0579 0.550098 30.9873 1.55498 33.6955L25 34.7825L48.445 33.6956C49.45 30.9873 50 28.0579 50 24.9999Z" fill="#D80027"/>
<path d="M25 50C35.7491 50 44.9126 43.2156 48.445 33.6956H1.55493C5.08726 43.2156 14.2508 50 25 50Z" fill="#6DA544"/>
<path d="M1.55493 16.3044H48.4451C44.9127 6.78438 35.7491 0 25 0C14.2508 0 5.08726 6.78438 1.55493 16.3044Z" fill="#338AF3"/>
<path d="M25.5435 32.0651C21.6415 32.0651 18.4782 28.9019 18.4782 24.9999C18.4782 21.0979 21.6415 17.9347 25.5435 17.9347C26.7601 17.9347 27.9049 18.2423 28.9043 18.7839C27.3364 17.2506 25.1922 16.3042 22.8261 16.3042C18.0236 16.3042 14.1305 20.1974 14.1305 24.9998C14.1305 29.8022 18.0237 33.6954 22.8261 33.6954C25.1923 33.6954 27.3365 32.749 28.9043 31.2157C27.9049 31.7575 26.7601 32.0651 25.5435 32.0651Z" fill="#F0F0F0"/>
<path d="M30.9782 20.1086L31.9141 22.7406L34.4369 21.5412L33.2376 24.064L35.8695 25L33.2376 25.9359L34.4369 28.4587L31.9141 27.2593L30.9782 29.8913L30.0425 27.2593L27.5195 28.4587L28.7189 25.9359L26.0869 25L28.7189 24.064L27.5195 21.5412L30.0425 22.7406L30.9782 20.1086Z" fill="#F0F0F0"/>
</svg>
